<svg xmlns="http://www.w3.org/2000/svg" viewBox="0 0 293.54 444.79"><defs><style>.cls-1{fill:#fff;opacity:0.83;}.cls-2{fill:#2b2928;}</style></defs><g id="Layer_2" data-name="Layer 2"><g id="Layer_1-2" data-name="Layer 1"><path class="cls-1" d="M143.59,10.77A133.77,133.77,0,0,0,9.81,144.54V390a35.83,35.83,0,1,0,71.66,0v-5a36.93,36.93,0,0,1,17.18-4.21,37.51,37.51,0,0,1,9.11,1.12v21.74a35.83,35.83,0,1,0,71.65,0V383.06a37.32,37.32,0,0,1,26.29.33V390a35.83,35.83,0,1,0,71.66,0v-236c0-1.89.89-5.66.25-7.08-.13-.3-.32-.63-.18-.93a.86.86,0,0,1,.42-.38c3.15-1.87,6.79-3.11,9.26-5.81a10.72,10.72,0,0,0-2.47-16.5c-2.48-1.48-5.86-1-8.14-2.65-1.64-1.19-1.88-3.29-2.29-5.14a138.2,138.2,0,0,0-4.58-16A133.42,133.42,0,0,0,255,70.43,133.61,133.61,0,0,0,143.59,10.77Z"/><path class="cls-2" d="M285.83,122.9C270.34,15.39,143-37.57,55.54,30.19,22.57,55.41,1.66,95.38,0,136.85c0,80.67,1.47,166.8,2.75,247.39.09,2.05,0,6.59.27,8.59a40.26,40.26,0,0,0,4.21,15.69C16.84,428.5,42,437.3,62,428.08a41.13,41.13,0,0,0,24-37,30.53,30.53,0,0,1,6.17-.62A31,31,0,0,1,102,392c0,3.17-.11,6.13-.15,8.28-.07,1.58,0,4.78.07,6.37,1.22,21.42,20.41,38.21,41.58,38.13,19.78.22,38.28-15,41.31-34.64l.46-3.4c0-1.13.21-3.9.14-5-.07-3.77-.15-7.54-.22-11.31h.51a31,31,0,0,1,15.62,4.21,40.16,40.16,0,0,0,5.43,16.84c16.64,28.41,58.72,26.41,73.23-2.94a42.56,42.56,0,0,0,4.38-18.81c.13-3.34.16-13.07.31-16.46,1.22-70.83,2.09-148.48,2.62-219.43.05-3.09.07-6.31.05-9.53a20.12,20.12,0,0,0,4.81-5.36C295.83,131.77,291.69,126.47,285.83,122.9Zm1,12.54a9,9,0,0,1-1.85,2.49c-3.92,3.73-9.69,4.48-14.67,5.89-1.57.44-3.15.83-4.76,1.16-3.48.71-7,1.29-10.51,1.79-8.08,1.14-16.22,1.88-24.36,2.42-8.77.59-17.57.95-26.36,1.15q-12.74.32-25.47.21-10.81-.06-21.65-.4c-5-.16-9.95-.35-14.91-.7l-2.77-.21c-8.82-.71-53.76-3.45-55.79-11.31h-1.2c-.34,7.23,20.64,13,26.77,14.89,7.19,1.91,14.45,3.48,21.75,4.77a37.21,37.21,0,0,0-.44,5.83c0,14.11,7.29,26.28,17.76,31.76a26.67,26.67,0,0,0,12.44,3.11c16.65,0,30.21-15.64,30.21-34.87,0-.3,0-.6,0-.9,2.55,0,5.1,0,7.63,0,1.82,0,3.64-.08,5.46-.16,0,.36,0,.72,0,1.08,0,14.11,7.3,26.28,17.76,31.76a26.71,26.71,0,0,0,12.45,3.11c16.65,0,30.2-15.64,30.2-34.87a39.81,39.81,0,0,0-1-8.74,102.3,102.3,0,0,0,12.72-4.17c.48,72.43,0,163.5.3,233.73a92.93,92.93,0,0,1-.31,10.85,33.85,33.85,0,0,1-9,19,35.48,35.48,0,0,1-51.27-.11,34.24,34.24,0,0,1-8.09-14.33c-.11-.38-.23-.74-.32-1.13a40.34,40.34,0,0,1-1.1-10.7v-4.13c0-30.66-.09-99.78-.1-127.52H205.1l-1.55,43.87c-.75,23.74-1.6,56.13-2.24,81.27a43,43,0,0,0-15.63-2.93l-.78,0c-.84-35.67-2.26-71.39-5.13-106.95h-.72l-.18,93.67c0,3.13,0,8.28,0,13.8,0,4.11,0,8.41,0,12.24s0,6.92,0,9.09c.51,11.56-4.57,23.19-13.94,30.12-22.66,17.24-56.27,1.63-56.49-27.2,0-2.36,0-5.15,0-8.26,0-4,0-8.48,0-13.4-.08-34.31-.17-88-.21-110.06h-.72c-2.88,35.09-4.12,70.26-5.12,105.38,0,.81,0,1.73-.06,2.73a43,43,0,0,0-10-1.18,43.93,43.93,0,0,0-6.43.48c-.58-25.06-1.42-55.59-2.17-78.82l-1.54-43.87h-1.2c0,26.35-.08,91.65-.1,123.75,0,2.93,0,5.58,0,7.9a36.36,36.36,0,0,1-.08,4.79A35.58,35.58,0,0,1,61,421.54l-.12.06a34.26,34.26,0,0,1-11.76,3.33c-18.37,1.94-36-11.31-38.21-29.84-.5-3-.21-7.86-.31-10.85.27-74.45-.24-172.6.4-246.8a138.06,138.06,0,0,1,4.23-26.84C45.34.24,190.1-23.65,254.09,71.1A132,132,0,0,1,273.6,118c.12.56.24,1.13.34,1.7.24,1.2.44,2.4.64,3.6,0,0,2.86.41,3.13.47a19.82,19.82,0,0,1,3.34,1.11c2.52,1.11,5.1,2.91,6.2,5.54A6,6,0,0,1,286.85,135.44Zm-36.14,22.1c2.2-.42,4.54-.89,7-1.44a33.11,33.11,0,0,1,.8,7.32c0,15.39-10.15,28-22.9,28.81,9.22-5.09,15.6-16.07,15.6-28.81A36.65,36.65,0,0,0,250.71,157.54Zm-73,4.73q3.66.15,7.31.19c0,.32,0,.64,0,1,0,15.39-10.17,28-22.9,28.81,9.21-5.09,15.58-16.07,15.58-28.81C177.71,163,177.71,162.66,177.69,162.27Z"/></g></g></svg>