<svg xmlns="http://www.w3.org/2000/svg" viewBox="0 0 299.85 444.79"><defs><style>.cls-1{fill:#fff;opacity:0.83;}.cls-2{fill:#2b2928;}</style></defs><g id="Layer_2" data-name="Layer 2"><g id="Layer_1-2" data-name="Layer 1"><g id="Banghost"><path class="cls-1" d="M142.78,10.87A133.78,133.78,0,0,0,9,144.65v245.5a35.83,35.83,0,0,0,71.66,0v-5a37,37,0,0,1,17.19-4.22,37.43,37.43,0,0,1,9.1,1.13V403.8a35.83,35.83,0,0,0,71.66,0V383.17a37.14,37.14,0,0,1,26.28.33v6.65a35.83,35.83,0,1,0,71.66,0V196.28c0-5.86-1.3-13.49.13-19.15,1.75-7,10-12.18,13.59-18.69,3.22-5.82,6.47-12,6.45-18.63a36.63,36.63,0,0,0-2.29-11.13c-1.32-4-2.78-8.11-5.23-11.58-5.08-7.21-15.26-8.66-19.79-15.22-4.06-5.88-5.74-15.06-9.31-21.57A133.89,133.89,0,0,0,142.78,10.87Z"/><path class="cls-2" d="M298.06,125.22c-3.32-9.24-9.27-16.49-16.56-22.35C254.14,9.08,137.36-33.22,55.54,30.19,22.58,55.4,1.66,95.37,0,136.85c0,80.67,1.46,166.8,2.75,247.39.08,2,0,6.59.26,8.59a41.38,41.38,0,0,0,9.54,23.87c18.14,21.89,53.58,19.49,67.88-5.24A40.53,40.53,0,0,0,86,393.77c0-.9,0-1.81,0-2.71a31.42,31.42,0,0,1,6.26-.63A31,31,0,0,1,102,392c-.06,3.17-.11,6.13-.16,8.28-.06,1.58,0,4.78.08,6.37,1.22,21.42,20.41,38.2,41.58,38.13,19.78.22,38.28-15,41.31-34.65l.46-3.39c0-1.13.2-3.9.14-5q-.1-5.65-.23-11.31h.52a31,31,0,0,1,15.62,4.21,40,40,0,0,0,5.42,16.83c16.64,28.42,58.72,26.41,73.25-2.93a42.79,42.79,0,0,0,4.37-18.81c.12-3.34.17-13.07.31-16.46,1.15-67,2-140,2.53-207.78C296.89,154.3,303.09,140.42,298.06,125.22Zm-10.82,32.53a30.58,30.58,0,0,1-10.91,9.41c0,2,0,4,0,6.08,0,.89,0,1.78,0,2.67.25,67.5-.08,146.09.17,208.33a92.91,92.91,0,0,1-.32,10.85,33.74,33.74,0,0,1-9,19,35.17,35.17,0,0,1-40.78,7.47A34.82,34.82,0,0,1,215.92,414a34.24,34.24,0,0,1-8.09-14.33c-.1-.37-.22-.74-.32-1.12a40.09,40.09,0,0,1-1.1-10.71v-4.13c0-30.67-.09-99.78-.11-127.53h-1.2l-1.54,43.89c-.77,23.73-1.61,56.12-2.25,81.26a43,43,0,0,0-15.63-2.93l-.78,0c-.84-35.67-2.26-71.39-5.13-106.95h-.72l-.18,93.67c0,3.13,0,8.28,0,13.8,0,4.11,0,8.41,0,12.24s0,6.92,0,9.09c.52,11.56-4.57,23.19-13.93,30.12-22.66,17.23-56.27,1.63-56.49-27.2,0-2.36,0-5.15,0-8.26,0-4,0-8.48,0-13.4-.08-34.31-.17-88-.21-110.06h-.73c-2.87,35.08-4.12,70.26-5.11,105.38,0,.81,0,1.73-.06,2.73a43,43,0,0,0-10-1.18,43.49,43.49,0,0,0-6.39.47c-.22-11.64-.68-23.27-.94-34.91-.6-21.88-2-65.9-2.81-87.78h-1.2L80.79,344c-.23,4.19.15,21.95.07,36,0,5-.13,9.51-.32,12.76a25.59,25.59,0,0,1-.55,4.57A35.36,35.36,0,0,1,61,421.5l-.2.1a33.57,33.57,0,0,1-11.69,3.33c-18.36,1.94-36-11.31-38.2-29.84-.5-3-.22-7.86-.31-10.85.26-74.45-.24-172.6.4-246.81a138.85,138.85,0,0,1,4.23-26.83C45.34.24,190.1-23.65,254.08,71.1a129.21,129.21,0,0,1,11.82,22,153,153,0,0,0-14.58-6.26c-19.39-7.23-39.59-6.42-59.52-2.19-43.18,8.85-84.94,34.28-108.53,71.63l.89.81a198.78,198.78,0,0,1,58.17-43.47c20.84-10,48.12-19.19,73.7-20.09h.27c11-.36,21.76.81,31.49,4.12l3.12,1.1h0a87,87,0,0,1,20.2,9.22c5.48,3.45,10.1,6.43,14.28,12.14a38.57,38.57,0,0,1,5,8.27,26.54,26.54,0,0,1,2,9.25A30.82,30.82,0,0,1,287.24,157.75Z"/><path class="cls-2" d="M221.84,195.18a26.71,26.71,0,0,0,12.45,3.11c16.65,0,30.2-15.64,30.2-34.87s-13.55-34.86-30.2-34.86a26.71,26.71,0,0,0-12.45,3.11c-10.46,5.48-17.76,17.65-17.76,31.75S211.38,189.69,221.84,195.18Zm13.74-60.57c12.74.81,22.9,13.42,22.9,28.81s-10.16,28-22.9,28.82c9.22-5.1,15.59-16.09,15.59-28.82S244.8,139.71,235.58,134.61Z"/><path class="cls-2" d="M160.83,128.56a26.71,26.71,0,0,0-12.45,3.11c-10.46,5.48-17.76,17.65-17.76,31.75s7.3,26.27,17.76,31.76a26.71,26.71,0,0,0,12.45,3.11c16.65,0,30.2-15.64,30.2-34.87S177.48,128.56,160.83,128.56Zm1.3,63.68c9.21-5.1,15.59-16.09,15.59-28.82s-6.38-23.71-15.59-28.81c12.74.81,22.9,13.42,22.9,28.81S174.87,191.43,162.13,192.24Z"/></g></g></g></svg>