<svg xmlns="http://www.w3.org/2000/svg" xmlns:xlink="http://www.w3.org/1999/xlink" viewBox="0 0 92.64 195.18"><defs><style>.cls-1,.cls-3{fill:none;stroke-miterlimit:10;}.cls-1{stroke:#2b2928;stroke-width:12.01px;}.cls-2{fill:url(#New_Gradient_Swatch_copy);}.cls-3{stroke:#fff;stroke-width:2.4px;}</style><linearGradient id="New_Gradient_Swatch_copy" x1="19.21" y1="100.29" x2="67.34" y2="86.49" gradientUnits="userSpaceOnUse"><stop offset="0" stop-color="#ff2c52"/><stop offset="1" stop-color="#ffa900"/></linearGradient></defs><g id="Layer_2" data-name="Layer 2"><g id="Layer_1-2" data-name="Layer 1"><g id="Bang_" data-name="Bang!"><path d="M12.18,11.78A26.9,26.9,0,0,1,23.3,6.88a27.14,27.14,0,0,1,12.15-.33,13.92,13.92,0,0,1,7.87,4.52,26.37,26.37,0,0,1,3.91,6.2A36.17,36.17,0,0,1,49.09,23q4.32,22.33,7,55t5.82,48.84l-22.4,5q-3.73-15.6-15.37-46.58T6.89,32.5a20.85,20.85,0,0,1-.88-6,29.67,29.67,0,0,1,1-7.31A13.83,13.83,0,0,1,12.18,11.78ZM68.64,142.69A20.45,20.45,0,0,0,40.36,149a19.75,19.75,0,0,0-2.69,15.45,20.1,20.1,0,0,0,9.06,12.93A20.19,20.19,0,0,0,75,171.08a20.17,20.17,0,0,0,2.68-15.57A19.79,19.79,0,0,0,68.64,142.69Z"/><path class="cls-1" d="M20.59,20.19a26.9,26.9,0,0,1,11.12-4.9A27.14,27.14,0,0,1,43.86,15a13.92,13.92,0,0,1,7.87,4.52,26.37,26.37,0,0,1,3.91,6.2,35.85,35.85,0,0,1,1.86,5.75q4.32,22.34,7,55t5.82,48.84l-22.4,5q-3.73-15.6-15.37-46.58T15.3,40.91a20.85,20.85,0,0,1-.88-6,29.67,29.67,0,0,1,1-7.31A13.83,13.83,0,0,1,20.59,20.19ZM77.05,151.1a20.45,20.45,0,0,0-28.28,6.35,19.75,19.75,0,0,0-2.69,15.45,20.1,20.1,0,0,0,9.06,12.93,20.19,20.19,0,0,0,28.28-6.34,20.12,20.12,0,0,0,2.67-15.57A19.74,19.74,0,0,0,77.05,151.1Z"/><path class="cls-1" d="M20.47,20.07a26.9,26.9,0,0,1,11.12-4.9,27.14,27.14,0,0,1,12.15-.33,13.92,13.92,0,0,1,7.87,4.52,26,26,0,0,1,3.9,6.2,34.94,34.94,0,0,1,1.87,5.75q4.32,22.34,7,55t5.82,48.84l-22.4,5Q44,124.56,32.4,93.58T15.18,40.79a20.85,20.85,0,0,1-.88-6,29.67,29.67,0,0,1,1-7.31A13.83,13.83,0,0,1,20.47,20.07ZM76.93,151a20.45,20.45,0,0,0-28.28,6.35A19.75,19.75,0,0,0,46,172.78,20.1,20.1,0,0,0,55,185.71a20.19,20.19,0,0,0,28.28-6.34A20.12,20.12,0,0,0,86,163.8,19.74,19.74,0,0,0,76.93,151Z"/><path class="cls-1" d="M20.35,20a26.9,26.9,0,0,1,11.12-4.9,27.14,27.14,0,0,1,12.15-.33,13.92,13.92,0,0,1,7.87,4.52,26,26,0,0,1,3.9,6.2,34.94,34.94,0,0,1,1.87,5.75q4.32,22.33,7,55T70.05,135l-22.4,5q-3.74-15.6-15.37-46.58T15.06,40.67a20.85,20.85,0,0,1-.88-6,29.67,29.67,0,0,1,1-7.31A13.83,13.83,0,0,1,20.35,20ZM76.81,150.86a20.45,20.45,0,0,0-28.28,6.35,19.74,19.74,0,0,0-2.69,15.45,20.1,20.1,0,0,0,9.06,12.93,20.19,20.19,0,0,0,28.28-6.34,20.12,20.12,0,0,0,2.67-15.57A19.74,19.74,0,0,0,76.81,150.86Z"/><path class="cls-1" d="M20.23,19.82a27,27,0,0,1,11.12-4.89A27.14,27.14,0,0,1,43.5,14.6a13.92,13.92,0,0,1,7.87,4.52,26,26,0,0,1,3.9,6.2,34.94,34.94,0,0,1,1.87,5.75q4.32,22.34,7,55t5.82,48.84l-22.4,5q-3.73-15.6-15.37-46.58T14.94,40.55a20.85,20.85,0,0,1-.88-6,29.67,29.67,0,0,1,1-7.31A13.89,13.89,0,0,1,20.23,19.82ZM76.69,150.74a20.45,20.45,0,0,0-28.28,6.35,19.74,19.74,0,0,0-2.69,15.45,20.1,20.1,0,0,0,9.06,12.93,20.19,20.19,0,0,0,28.28-6.34,20.12,20.12,0,0,0,2.67-15.57A19.74,19.74,0,0,0,76.69,150.74Z"/><path class="cls-1" d="M20.11,19.7a27,27,0,0,1,11.12-4.89,27.14,27.14,0,0,1,12.15-.33A13.92,13.92,0,0,1,51.25,19a26,26,0,0,1,3.9,6.2A34.94,34.94,0,0,1,57,31q4.32,22.34,7,55t5.82,48.84l-22.4,5Q43.68,124.2,32,93.22T14.82,40.42a20.8,20.8,0,0,1-.88-6,29.66,29.66,0,0,1,1-7.3A13.89,13.89,0,0,1,20.11,19.7ZM76.57,150.62A20.45,20.45,0,0,0,48.29,157a19.79,19.79,0,0,0-2.7,15.45,20.11,20.11,0,0,0,9.07,12.93A20.18,20.18,0,0,0,82.94,179a20.09,20.09,0,0,0,2.67-15.56A19.74,19.74,0,0,0,76.57,150.62Z"/><path class="cls-1" d="M20,19.58a27,27,0,0,1,11.12-4.89,27.14,27.14,0,0,1,12.15-.33,13.92,13.92,0,0,1,7.87,4.52,25.79,25.79,0,0,1,3.9,6.2,34.94,34.94,0,0,1,1.87,5.75q4.32,22.34,7,55t5.82,48.84l-22.4,5q-3.74-15.6-15.37-46.58T14.7,40.3a20.8,20.8,0,0,1-.88-6,30.09,30.09,0,0,1,1-7.3A14,14,0,0,1,20,19.58ZM76.45,150.5a20.45,20.45,0,0,0-28.28,6.35,19.79,19.79,0,0,0-2.7,15.45,20.11,20.11,0,0,0,9.07,12.93,20.19,20.19,0,0,0,28.28-6.35,20.09,20.09,0,0,0,2.67-15.56A19.74,19.74,0,0,0,76.45,150.5Z"/><path class="cls-1" d="M19.87,19.46A27,27,0,0,1,31,14.57a27.14,27.14,0,0,1,12.15-.33A13.92,13.92,0,0,1,51,18.76a25.79,25.79,0,0,1,3.9,6.2,34.94,34.94,0,0,1,1.87,5.75q4.32,22.34,7,55t5.82,48.84l-22.4,5Q43.44,124,31.8,93T14.58,40.18a20.8,20.8,0,0,1-.88-6,30.09,30.09,0,0,1,1-7.3A14,14,0,0,1,19.87,19.46ZM76.33,150.38a20.45,20.45,0,0,0-28.28,6.35,19.79,19.79,0,0,0-2.7,15.45,20.11,20.11,0,0,0,9.07,12.93,20.19,20.19,0,0,0,28.28-6.35,20.09,20.09,0,0,0,2.67-15.56A19.74,19.74,0,0,0,76.33,150.38Z"/><path class="cls-1" d="M19.75,19.34a27,27,0,0,1,11.12-4.89A27.14,27.14,0,0,1,43,14.12a13.92,13.92,0,0,1,7.87,4.52,25.79,25.79,0,0,1,3.9,6.2,34.94,34.94,0,0,1,1.87,5.75q4.32,22.33,7,55t5.82,48.84l-22.4,5q-3.73-15.61-15.37-46.58T14.46,40.06a20.85,20.85,0,0,1-.88-6,30.09,30.09,0,0,1,1-7.3A14,14,0,0,1,19.75,19.34ZM76.21,150.26a20.45,20.45,0,0,0-28.28,6.35,19.79,19.79,0,0,0-2.7,15.45A20.11,20.11,0,0,0,54.3,185a20.19,20.19,0,0,0,28.28-6.35,20.09,20.09,0,0,0,2.67-15.56A19.74,19.74,0,0,0,76.21,150.26Z"/><path class="cls-1" d="M19.63,19.22a27,27,0,0,1,11.12-4.89A27.14,27.14,0,0,1,42.9,14a13.92,13.92,0,0,1,7.87,4.52,25.79,25.79,0,0,1,3.9,6.2,34.94,34.94,0,0,1,1.87,5.75q4.32,22.34,7,55t5.82,48.84l-22.4,5q-3.74-15.61-15.37-46.58T14.34,39.94a20.85,20.85,0,0,1-.88-6,30.09,30.09,0,0,1,1-7.3A14,14,0,0,1,19.63,19.22ZM76.09,150.14a20.45,20.45,0,0,0-28.28,6.35,19.79,19.79,0,0,0-2.7,15.45,20.11,20.11,0,0,0,9.07,12.93,20.19,20.19,0,0,0,28.28-6.35A20.09,20.09,0,0,0,85.13,163,19.74,19.74,0,0,0,76.09,150.14Z"/><path class="cls-1" d="M19.51,19.1a27,27,0,0,1,11.12-4.89,27.14,27.14,0,0,1,12.15-.33,13.92,13.92,0,0,1,7.87,4.52,26.1,26.1,0,0,1,3.9,6.2,34.94,34.94,0,0,1,1.87,5.75q4.32,22.34,7,55t5.82,48.84l-22.4,5q-3.73-15.61-15.37-46.58T14.22,39.82a20.85,20.85,0,0,1-.88-6,30,30,0,0,1,1-7.3A14,14,0,0,1,19.51,19.1ZM76,150a20.45,20.45,0,0,0-28.28,6.35A19.79,19.79,0,0,0,45,171.82a20.11,20.11,0,0,0,9.07,12.93,20.19,20.19,0,0,0,28.28-6.35A20.09,20.09,0,0,0,85,162.84,19.74,19.74,0,0,0,76,150Z"/><path class="cls-1" d="M19.39,19a27,27,0,0,1,11.12-4.89,27.14,27.14,0,0,1,12.15-.33,13.92,13.92,0,0,1,7.87,4.52,26.1,26.1,0,0,1,3.9,6.2,34.94,34.94,0,0,1,1.87,5.75q4.32,22.33,7,55t5.82,48.84l-22.4,5Q43,123.46,31.32,92.5T14.1,39.7a20.85,20.85,0,0,1-.88-6,29.55,29.55,0,0,1,1-7.3A14,14,0,0,1,19.39,19ZM75.85,149.9a20.45,20.45,0,0,0-28.28,6.35,19.79,19.79,0,0,0-2.7,15.45,20.11,20.11,0,0,0,9.07,12.93,20.19,20.19,0,0,0,28.28-6.35,20.09,20.09,0,0,0,2.67-15.56A19.74,19.74,0,0,0,75.85,149.9Z"/><path class="cls-1" d="M19.27,18.86A27,27,0,0,1,30.39,14a27.14,27.14,0,0,1,12.15-.33,13.92,13.92,0,0,1,7.87,4.52,26.1,26.1,0,0,1,3.9,6.2,34.94,34.94,0,0,1,1.87,5.75q4.32,22.34,7,55T69,133.93l-22.4,5Q42.83,123.35,31.2,92.38T14,39.58a20.85,20.85,0,0,1-.88-6,29.55,29.55,0,0,1,1-7.3A14,14,0,0,1,19.27,18.86ZM75.73,149.78a20.45,20.45,0,0,0-28.28,6.35,19.79,19.79,0,0,0-2.7,15.45,20.11,20.11,0,0,0,9.07,12.93,20.19,20.19,0,0,0,28.28-6.35,20.09,20.09,0,0,0,2.67-15.56A19.74,19.74,0,0,0,75.73,149.78Z"/><path class="cls-1" d="M19.15,18.74a27,27,0,0,1,11.12-4.89,27.14,27.14,0,0,1,12.15-.33A13.92,13.92,0,0,1,50.29,18a26.1,26.1,0,0,1,3.9,6.2A34.94,34.94,0,0,1,56.06,30q4.32,22.34,7,55t5.82,48.84l-22.4,5q-3.73-15.61-15.37-46.58T13.86,39.46a20.85,20.85,0,0,1-.88-6,29.55,29.55,0,0,1,1-7.3A14,14,0,0,1,19.15,18.74ZM75.61,149.66A20.45,20.45,0,0,0,47.33,156a19.79,19.79,0,0,0-2.7,15.45,20.14,20.14,0,0,0,9.07,12.93A20.19,20.19,0,0,0,82,178a20.09,20.09,0,0,0,2.67-15.56A19.74,19.74,0,0,0,75.61,149.66Z"/><path class="cls-1" d="M19,18.62a27,27,0,0,1,11.12-4.89A27.14,27.14,0,0,1,42.3,13.4a13.92,13.92,0,0,1,7.87,4.52,26.1,26.1,0,0,1,3.9,6.2,34.94,34.94,0,0,1,1.87,5.75q4.32,22.33,7,55t5.82,48.84l-22.4,5Q42.6,123.11,31,92.14T13.74,39.34a20.85,20.85,0,0,1-.88-6,29.55,29.55,0,0,1,1-7.3A14,14,0,0,1,19,18.62ZM75.49,149.54a20.45,20.45,0,0,0-28.28,6.35,19.79,19.79,0,0,0-2.7,15.45,20.14,20.14,0,0,0,9.07,12.93,20.19,20.19,0,0,0,28.28-6.35,20.09,20.09,0,0,0,2.67-15.56A19.74,19.74,0,0,0,75.49,149.54Z"/><path class="cls-1" d="M18.91,18.5A27,27,0,0,1,30,13.61a27.14,27.14,0,0,1,12.15-.33,13.92,13.92,0,0,1,7.87,4.52A26.1,26.1,0,0,1,54,24a34.94,34.94,0,0,1,1.87,5.75q4.32,22.34,7,55t5.82,48.84l-22.4,5Q42.47,123,30.84,92T13.62,39.22a20.85,20.85,0,0,1-.88-6,29.55,29.55,0,0,1,1-7.3A14,14,0,0,1,18.91,18.5ZM75.37,149.42a20.45,20.45,0,0,0-28.28,6.35,19.79,19.79,0,0,0-2.7,15.45,20.14,20.14,0,0,0,9.07,12.93,20.19,20.19,0,0,0,28.28-6.35,20.09,20.09,0,0,0,2.67-15.56A19.74,19.74,0,0,0,75.37,149.42Z"/><path class="cls-1" d="M18.79,18.38a27,27,0,0,1,11.12-4.89,27.14,27.14,0,0,1,12.15-.33,13.92,13.92,0,0,1,7.87,4.52,26.1,26.1,0,0,1,3.9,6.2,34,34,0,0,1,1.86,5.75q4.34,22.34,7,55t5.82,48.84l-22.4,5Q42.36,122.87,30.72,91.9T13.5,39.1a20.85,20.85,0,0,1-.88-6,29.55,29.55,0,0,1,1-7.3A14,14,0,0,1,18.79,18.38ZM75.25,149.3A20.45,20.45,0,0,0,47,155.65a19.79,19.79,0,0,0-2.7,15.45A20.14,20.14,0,0,0,53.34,184a20.19,20.19,0,0,0,28.28-6.35,20.09,20.09,0,0,0,2.67-15.56A19.74,19.74,0,0,0,75.25,149.3Z"/><path class="cls-1" d="M18.67,18.26a27,27,0,0,1,11.12-4.89A27.14,27.14,0,0,1,41.94,13a13.92,13.92,0,0,1,7.87,4.52,26.1,26.1,0,0,1,3.9,6.2,34,34,0,0,1,1.86,5.75q4.34,22.33,7,55t5.82,48.84l-22.4,5Q42.24,122.75,30.6,91.78T13.38,39a20.85,20.85,0,0,1-.88-6,29.55,29.55,0,0,1,1-7.3A14,14,0,0,1,18.67,18.26ZM75.13,149.18a20.45,20.45,0,0,0-28.28,6.35A19.79,19.79,0,0,0,44.15,171a20.14,20.14,0,0,0,9.07,12.93,20.19,20.19,0,0,0,28.28-6.35A20.09,20.09,0,0,0,84.17,162,19.74,19.74,0,0,0,75.13,149.18Z"/><path class="cls-1" d="M18.55,18.14a27,27,0,0,1,11.12-4.89,27.14,27.14,0,0,1,12.15-.33,14,14,0,0,1,7.87,4.51,26.34,26.34,0,0,1,3.9,6.21,34,34,0,0,1,1.86,5.75q4.34,22.34,7,55t5.82,48.84l-22.4,5q-3.74-15.62-15.37-46.58T13.26,38.86a20.85,20.85,0,0,1-.88-6,29.55,29.55,0,0,1,1-7.3A14,14,0,0,1,18.55,18.14ZM75,149.06a20.45,20.45,0,0,0-28.28,6.35A19.79,19.79,0,0,0,44,170.86a20.14,20.14,0,0,0,9.07,12.93,20.19,20.19,0,0,0,28.28-6.35,20.09,20.09,0,0,0,2.67-15.56A19.74,19.74,0,0,0,75,149.06Z"/><path class="cls-1" d="M18.43,18a27,27,0,0,1,11.12-4.89A27.14,27.14,0,0,1,41.7,12.8a14,14,0,0,1,7.87,4.51,26.34,26.34,0,0,1,3.9,6.21,34,34,0,0,1,1.86,5.75q4.34,22.33,7,55t5.82,48.84l-22.4,5Q42,122.51,30.36,91.54T13.14,38.74a20.85,20.85,0,0,1-.88-6,29.55,29.55,0,0,1,1-7.3A14,14,0,0,1,18.43,18ZM74.89,148.94a20.45,20.45,0,0,0-28.28,6.35,19.79,19.79,0,0,0-2.7,15.45A20.14,20.14,0,0,0,53,183.67a20.19,20.19,0,0,0,28.28-6.35,20.09,20.09,0,0,0,2.67-15.56A19.72,19.72,0,0,0,74.89,148.94Z"/><path class="cls-1" d="M18.31,17.9A27,27,0,0,1,29.43,13a27.14,27.14,0,0,1,12.15-.33,14,14,0,0,1,7.87,4.51,26.34,26.34,0,0,1,3.9,6.21,34,34,0,0,1,1.86,5.75q4.34,22.34,7,55T68,133l-22.4,5q-3.73-15.61-15.37-46.58T13,38.62a20.85,20.85,0,0,1-.88-6,29.55,29.55,0,0,1,1-7.3A14,14,0,0,1,18.31,17.9ZM74.77,148.82a20.45,20.45,0,0,0-28.28,6.35,19.75,19.75,0,0,0-2.7,15.45,20.14,20.14,0,0,0,9.07,12.93,20.19,20.19,0,0,0,28.28-6.35,20.09,20.09,0,0,0,2.67-15.56A19.72,19.72,0,0,0,74.77,148.82Z"/><path class="cls-1" d="M18.19,17.78a27,27,0,0,1,11.12-4.89,27.14,27.14,0,0,1,12.15-.33,14,14,0,0,1,7.87,4.51,26.34,26.34,0,0,1,3.9,6.21A34,34,0,0,1,55.09,29q4.33,22.34,7,55t5.82,48.84l-22.4,5Q41.76,122.27,30.12,91.3T12.9,38.5a21.2,21.2,0,0,1-.89-6,29.6,29.6,0,0,1,1-7.3A14,14,0,0,1,18.19,17.78ZM74.65,148.7a20.45,20.45,0,0,0-28.28,6.35,19.71,19.71,0,0,0-2.7,15.45,20.14,20.14,0,0,0,9.07,12.93A20.19,20.19,0,0,0,81,177.08a20.09,20.09,0,0,0,2.67-15.56A19.72,19.72,0,0,0,74.65,148.7Z"/><path class="cls-1" d="M18.06,17.66a27.13,27.13,0,0,1,11.13-4.89,27.14,27.14,0,0,1,12.15-.33A14,14,0,0,1,49.21,17a26.34,26.34,0,0,1,3.9,6.21A34,34,0,0,1,55,28.91q4.34,22.33,7,55t5.82,48.84l-22.4,5Q41.64,122.15,30,91.18T12.78,38.38a21.2,21.2,0,0,1-.89-6,29.6,29.6,0,0,1,1-7.3A14,14,0,0,1,18.06,17.66ZM74.53,148.58a20.45,20.45,0,0,0-28.28,6.35,19.71,19.71,0,0,0-2.7,15.45,20.14,20.14,0,0,0,9.07,12.93A20.19,20.19,0,0,0,80.9,177a20.09,20.09,0,0,0,2.67-15.56A19.72,19.72,0,0,0,74.53,148.58Z"/><path class="cls-1" d="M17.94,17.54a27.13,27.13,0,0,1,11.13-4.89,27.14,27.14,0,0,1,12.15-.33,14,14,0,0,1,7.87,4.51A26.34,26.34,0,0,1,53,23a34,34,0,0,1,1.86,5.75q4.34,22.34,7,55t5.82,48.84l-22.4,5Q41.52,122,29.88,91.06T12.66,38.26a21.2,21.2,0,0,1-.89-6,29.6,29.6,0,0,1,1-7.3A14,14,0,0,1,17.94,17.54ZM74.41,148.46a20.45,20.45,0,0,0-28.28,6.35,19.71,19.71,0,0,0-2.7,15.45,20.14,20.14,0,0,0,9.07,12.93,20.19,20.19,0,0,0,28.28-6.35,20.09,20.09,0,0,0,2.67-15.56A19.72,19.72,0,0,0,74.41,148.46Z"/><path class="cls-1" d="M17.82,17.42A27.13,27.13,0,0,1,29,12.53,27,27,0,0,1,41.1,12.2,13.9,13.9,0,0,1,49,16.71a26.09,26.09,0,0,1,3.91,6.21,34,34,0,0,1,1.86,5.75q4.34,22.34,7,55t5.82,48.84l-22.4,5Q41.4,121.91,29.76,90.94T12.54,38.14a21.2,21.2,0,0,1-.89-6,29.6,29.6,0,0,1,1-7.3A14,14,0,0,1,17.82,17.42ZM74.29,148.34A20.45,20.45,0,0,0,46,154.69a19.71,19.71,0,0,0-2.7,15.45,20.14,20.14,0,0,0,9.07,12.93,20.19,20.19,0,0,0,28.28-6.35,20.09,20.09,0,0,0,2.67-15.56A19.72,19.72,0,0,0,74.29,148.34Z"/><path class="cls-1" d="M17.7,17.3a27.13,27.13,0,0,1,11.13-4.89A27,27,0,0,1,41,12.08a13.9,13.9,0,0,1,7.86,4.51,26.09,26.09,0,0,1,3.91,6.21,34,34,0,0,1,1.86,5.75q4.34,22.33,7,55t5.82,48.84l-22.4,5q-3.73-15.62-15.37-46.58T12.42,38a21.2,21.2,0,0,1-.89-6,29.6,29.6,0,0,1,1-7.3A14,14,0,0,1,17.7,17.3ZM74.17,148.22a20.46,20.46,0,0,0-28.28,6.34A19.74,19.74,0,0,0,43.19,170,20.14,20.14,0,0,0,52.26,183a20.19,20.19,0,0,0,28.28-6.35A20.09,20.09,0,0,0,83.21,161,19.75,19.75,0,0,0,74.17,148.22Z"/><path class="cls-1" d="M17.58,17.18a27.13,27.13,0,0,1,11.13-4.89A27,27,0,0,1,40.86,12a13.9,13.9,0,0,1,7.86,4.51,26.09,26.09,0,0,1,3.91,6.21,34,34,0,0,1,1.86,5.75q4.34,22.34,7,55t5.82,48.84l-22.4,5Q41.16,121.67,29.52,90.7T12.3,37.9a21.2,21.2,0,0,1-.89-6,29.6,29.6,0,0,1,1-7.3A14,14,0,0,1,17.58,17.18ZM74.05,148.1a20.46,20.46,0,0,0-28.28,6.34,19.74,19.74,0,0,0-2.7,15.46,20.14,20.14,0,0,0,9.07,12.93,20.19,20.19,0,0,0,28.28-6.35,20.09,20.09,0,0,0,2.67-15.56A19.75,19.75,0,0,0,74.05,148.1Z"/><path class="cls-1" d="M17.46,17.06a27.13,27.13,0,0,1,11.13-4.89,27,27,0,0,1,12.15-.33,13.9,13.9,0,0,1,7.86,4.51,26.09,26.09,0,0,1,3.91,6.21,34,34,0,0,1,1.86,5.75q4.34,22.34,7,55t5.82,48.84l-22.4,5Q41,121.55,29.4,90.58T12.18,37.78a21.2,21.2,0,0,1-.89-6,29.6,29.6,0,0,1,1-7.3A14,14,0,0,1,17.46,17.06ZM73.93,148a20.46,20.46,0,0,0-28.28,6.34A19.74,19.74,0,0,0,43,169.78,20.14,20.14,0,0,0,52,182.71a20.19,20.19,0,0,0,28.28-6.35A20.09,20.09,0,0,0,83,160.8,19.75,19.75,0,0,0,73.93,148Z"/><path class="cls-1" d="M17.34,16.94a27.13,27.13,0,0,1,11.13-4.89,27,27,0,0,1,12.15-.33,13.9,13.9,0,0,1,7.86,4.51,26.09,26.09,0,0,1,3.91,6.21,34,34,0,0,1,1.86,5.75q4.34,22.33,7,55T67.05,132l-22.4,5q-3.74-15.61-15.37-46.58T12.06,37.66a21.2,21.2,0,0,1-.89-6,29.6,29.6,0,0,1,1-7.3A14,14,0,0,1,17.34,16.94ZM73.81,147.86a20.46,20.46,0,0,0-28.28,6.34,19.74,19.74,0,0,0-2.7,15.46,20.14,20.14,0,0,0,9.07,12.93,20.19,20.19,0,0,0,28.28-6.35,20.09,20.09,0,0,0,2.67-15.56A19.75,19.75,0,0,0,73.81,147.86Z"/><path class="cls-1" d="M17.22,16.82a27.07,27.07,0,0,1,11.13-4.89A27,27,0,0,1,40.5,11.6a13.9,13.9,0,0,1,7.86,4.51,26.09,26.09,0,0,1,3.91,6.21,34,34,0,0,1,1.86,5.75q4.34,22.34,7,55t5.82,48.84l-22.4,5Q40.8,121.31,29.16,90.34T11.94,37.54a20.85,20.85,0,0,1-.89-6,29.6,29.6,0,0,1,1-7.3A14,14,0,0,1,17.22,16.82ZM73.69,147.74a20.46,20.46,0,0,0-28.28,6.34,19.74,19.74,0,0,0-2.7,15.46,20.14,20.14,0,0,0,9.07,12.93,20.19,20.19,0,0,0,28.28-6.35,20.09,20.09,0,0,0,2.67-15.56A19.75,19.75,0,0,0,73.69,147.74Z"/><path class="cls-1" d="M17.1,16.7a27.07,27.07,0,0,1,11.13-4.89,26.85,26.85,0,0,1,12.15-.33A13.9,13.9,0,0,1,48.24,16a25.9,25.9,0,0,1,3.91,6.21A34,34,0,0,1,54,28q4.34,22.34,7,55t5.82,48.84l-22.4,5Q40.68,121.19,29,90.22T11.82,37.42a20.85,20.85,0,0,1-.89-6,29.54,29.54,0,0,1,1-7.3A14,14,0,0,1,17.1,16.7ZM73.57,147.62A20.46,20.46,0,0,0,45.29,154a19.74,19.74,0,0,0-2.7,15.46,20.14,20.14,0,0,0,9.07,12.93A20.19,20.19,0,0,0,79.94,176a20.09,20.09,0,0,0,2.67-15.56A19.75,19.75,0,0,0,73.57,147.62Z"/><path class="cls-1" d="M17,16.58a27.07,27.07,0,0,1,11.13-4.89,26.85,26.85,0,0,1,12.15-.33,13.94,13.94,0,0,1,7.86,4.51A25.9,25.9,0,0,1,52,22.08a34,34,0,0,1,1.86,5.75q4.34,22.34,7,55t5.82,48.84l-22.4,5Q40.55,121.07,28.92,90.1T11.7,37.3a20.85,20.85,0,0,1-.89-6,29.54,29.54,0,0,1,1-7.3A14,14,0,0,1,17,16.58ZM73.44,147.5a20.45,20.45,0,0,0-28.27,6.34,19.74,19.74,0,0,0-2.7,15.46,20.14,20.14,0,0,0,9.07,12.93,20.19,20.19,0,0,0,28.28-6.35,20.09,20.09,0,0,0,2.67-15.56A19.73,19.73,0,0,0,73.44,147.5Z"/><path class="cls-1" d="M16.86,16.46A27.07,27.07,0,0,1,28,11.57a26.85,26.85,0,0,1,12.15-.33A13.94,13.94,0,0,1,48,15.75,25.9,25.9,0,0,1,51.91,22a34,34,0,0,1,1.86,5.75q4.33,22.34,7,55t5.82,48.84l-22.4,5Q40.44,120.95,28.8,90T11.58,37.18a20.85,20.85,0,0,1-.89-6,29.54,29.54,0,0,1,1-7.3A14,14,0,0,1,16.86,16.46ZM73.32,147.38a20.45,20.45,0,0,0-28.27,6.34,19.74,19.74,0,0,0-2.7,15.46,20.14,20.14,0,0,0,9.07,12.93,20.19,20.19,0,0,0,28.28-6.35,20.09,20.09,0,0,0,2.67-15.56A19.73,19.73,0,0,0,73.32,147.38Z"/><path class="cls-1" d="M16.74,16.34a27.21,27.21,0,0,1,11.13-4.9A27,27,0,0,1,40,11.12a13.94,13.94,0,0,1,7.86,4.51,25.9,25.9,0,0,1,3.91,6.21,34,34,0,0,1,1.86,5.75q4.34,22.33,7,55t5.82,48.84l-22.4,5q-3.73-15.61-15.37-46.59T11.46,37.06a20.85,20.85,0,0,1-.89-6,29.54,29.54,0,0,1,1-7.3A14,14,0,0,1,16.74,16.34ZM73.2,147.26a20.45,20.45,0,0,0-28.27,6.34,19.74,19.74,0,0,0-2.7,15.46A20.14,20.14,0,0,0,51.3,182a20.19,20.19,0,0,0,28.28-6.35,20.09,20.09,0,0,0,2.67-15.56A19.73,19.73,0,0,0,73.2,147.26Z"/><path class="cls-1" d="M16.62,16.22a27.21,27.21,0,0,1,11.13-4.9A27,27,0,0,1,39.9,11a13.94,13.94,0,0,1,7.86,4.51,25.9,25.9,0,0,1,3.91,6.21,34,34,0,0,1,1.86,5.75q4.34,22.34,7,55t5.82,48.84l-22.4,5q-3.74-15.61-15.37-46.59T11.34,36.94a20.85,20.85,0,0,1-.89-6,29.54,29.54,0,0,1,1-7.3A13.91,13.91,0,0,1,16.62,16.22ZM73.08,147.14a20.45,20.45,0,0,0-28.27,6.34,19.74,19.74,0,0,0-2.7,15.46,20.14,20.14,0,0,0,9.07,12.93,20.19,20.19,0,0,0,28.28-6.35A20.09,20.09,0,0,0,82.13,160,19.73,19.73,0,0,0,73.08,147.14Z"/><path class="cls-1" d="M16.5,16.1a27.21,27.21,0,0,1,11.13-4.9,27,27,0,0,1,12.15-.32,13.94,13.94,0,0,1,7.86,4.51,25.9,25.9,0,0,1,3.91,6.21,34,34,0,0,1,1.86,5.75q4.34,22.34,7,55t5.83,48.84l-22.4,5q-3.73-15.61-15.37-46.59T11.22,36.82a20.85,20.85,0,0,1-.89-6,29.54,29.54,0,0,1,1-7.3A13.91,13.91,0,0,1,16.5,16.1ZM73,147a20.45,20.45,0,0,0-28.27,6.34A19.74,19.74,0,0,0,42,168.82a20.14,20.14,0,0,0,9.07,12.93,20.19,20.19,0,0,0,28.28-6.35A20.09,20.09,0,0,0,82,159.84,19.73,19.73,0,0,0,73,147Z"/><path class="cls-1" d="M16.38,16a27.21,27.21,0,0,1,11.13-4.9,27,27,0,0,1,12.15-.32,13.94,13.94,0,0,1,7.86,4.51,25.9,25.9,0,0,1,3.91,6.21,34,34,0,0,1,1.86,5.75q4.34,22.33,7,55t5.83,48.84l-22.4,5Q40,120.47,28.32,89.49T11.1,36.7a20.85,20.85,0,0,1-.89-6,29.54,29.54,0,0,1,1-7.3A13.91,13.91,0,0,1,16.38,16ZM72.84,146.9a20.45,20.45,0,0,0-28.27,6.34,19.74,19.74,0,0,0-2.7,15.46,20.14,20.14,0,0,0,9.07,12.93,20.19,20.19,0,0,0,28.28-6.35,20.09,20.09,0,0,0,2.67-15.56A19.73,19.73,0,0,0,72.84,146.9Z"/><path class="cls-1" d="M16.26,15.86A27.21,27.21,0,0,1,27.39,11a27,27,0,0,1,12.15-.32,13.94,13.94,0,0,1,7.86,4.51,25.9,25.9,0,0,1,3.91,6.21,34,34,0,0,1,1.86,5.75q4.34,22.34,7,55T66,130.93l-22.4,5Q39.83,120.35,28.2,89.37T11,36.58a20.85,20.85,0,0,1-.89-6,29.54,29.54,0,0,1,1-7.3A13.91,13.91,0,0,1,16.26,15.86ZM72.72,146.78a20.45,20.45,0,0,0-28.27,6.34,19.74,19.74,0,0,0-2.7,15.46,20.14,20.14,0,0,0,9.07,12.93,20.19,20.19,0,0,0,28.28-6.35,20.1,20.1,0,0,0,2.67-15.56A19.73,19.73,0,0,0,72.72,146.78Z"/><path class="cls-1" d="M16.14,15.74a27.21,27.21,0,0,1,11.13-4.9,27,27,0,0,1,12.15-.32A13.94,13.94,0,0,1,47.28,15a25.9,25.9,0,0,1,3.91,6.21A34,34,0,0,1,53.05,27q4.34,22.34,7,55t5.83,48.84l-22.4,5q-3.73-15.61-15.37-46.59T10.86,36.46a20.85,20.85,0,0,1-.89-6,29.54,29.54,0,0,1,1-7.3A13.91,13.91,0,0,1,16.14,15.74ZM72.6,146.66A20.45,20.45,0,0,0,44.33,153a19.74,19.74,0,0,0-2.7,15.46,20.14,20.14,0,0,0,9.07,12.93A20.19,20.19,0,0,0,79,175a20.1,20.1,0,0,0,2.67-15.56A19.73,19.73,0,0,0,72.6,146.66Z"/><path class="cls-1" d="M16,15.62a27.21,27.21,0,0,1,11.13-4.9A27,27,0,0,1,39.3,10.4a13.94,13.94,0,0,1,7.86,4.51,25.9,25.9,0,0,1,3.91,6.21,34,34,0,0,1,1.86,5.75q4.34,22.33,7,55t5.83,48.84l-22.4,5Q39.6,120.11,28,89.13T10.74,36.34a20.85,20.85,0,0,1-.89-6,29.54,29.54,0,0,1,1-7.3A13.91,13.91,0,0,1,16,15.62ZM72.48,146.54a20.45,20.45,0,0,0-28.27,6.34,19.74,19.74,0,0,0-2.7,15.46,20.14,20.14,0,0,0,9.07,12.93,20.21,20.21,0,0,0,28.28-6.35,20.1,20.1,0,0,0,2.67-15.56A19.73,19.73,0,0,0,72.48,146.54Z"/><path class="cls-1" d="M15.9,15.5A27.21,27.21,0,0,1,27,10.6a26.94,26.94,0,0,1,12.14-.32A13.88,13.88,0,0,1,47,14.79,25.9,25.9,0,0,1,51,21a34,34,0,0,1,1.86,5.75q4.34,22.34,7,55t5.83,48.84l-22.4,5Q39.47,120,27.84,89T10.62,36.22a20.85,20.85,0,0,1-.89-6,29.54,29.54,0,0,1,1-7.3A13.91,13.91,0,0,1,15.9,15.5ZM72.36,146.42a20.45,20.45,0,0,0-28.27,6.34,19.74,19.74,0,0,0-2.7,15.46,20.14,20.14,0,0,0,9.07,12.93,20.21,20.21,0,0,0,28.28-6.35,20.1,20.1,0,0,0,2.67-15.56A19.73,19.73,0,0,0,72.36,146.42Z"/><path class="cls-1" d="M15.78,15.38a27.21,27.21,0,0,1,11.13-4.9,26.94,26.94,0,0,1,12.14-.32,13.88,13.88,0,0,1,7.87,4.51,25.9,25.9,0,0,1,3.91,6.21,34.88,34.88,0,0,1,1.86,5.75q4.34,22.34,7,55t5.83,48.84l-22.41,5q-3.72-15.61-15.36-46.59T10.5,36.1a20.85,20.85,0,0,1-.89-6,29.54,29.54,0,0,1,1-7.3A13.91,13.91,0,0,1,15.78,15.38ZM72.24,146.3A20.45,20.45,0,0,0,44,152.64a19.74,19.74,0,0,0-2.7,15.46A20.14,20.14,0,0,0,50.34,181a20.21,20.21,0,0,0,28.28-6.35,20.11,20.11,0,0,0,2.67-15.57A19.74,19.74,0,0,0,72.24,146.3Z"/><path class="cls-1" d="M15.66,15.26a27.21,27.21,0,0,1,11.13-4.9A26.94,26.94,0,0,1,38.93,10a13.88,13.88,0,0,1,7.87,4.51,25.9,25.9,0,0,1,3.91,6.21,34.88,34.88,0,0,1,1.86,5.75q4.34,22.33,7,55t5.83,48.84l-22.41,5Q39.24,119.75,27.6,88.77T10.38,36a20.85,20.85,0,0,1-.89-6,29.54,29.54,0,0,1,1-7.3A13.91,13.91,0,0,1,15.66,15.26ZM72.12,146.18a20.45,20.45,0,0,0-28.27,6.34A19.74,19.74,0,0,0,41.15,168a20.14,20.14,0,0,0,9.07,12.93,20.21,20.21,0,0,0,28.28-6.35A20.11,20.11,0,0,0,81.17,159,19.74,19.74,0,0,0,72.12,146.18Z"/><path class="cls-1" d="M15.54,15.14a27.21,27.21,0,0,1,11.13-4.9,26.94,26.94,0,0,1,12.14-.32,13.88,13.88,0,0,1,7.87,4.51,25.9,25.9,0,0,1,3.91,6.21,34.58,34.58,0,0,1,1.86,5.75q4.34,22.34,7,55t5.83,48.84l-22.41,5q-3.73-15.62-15.36-46.59T10.26,35.86a20.85,20.85,0,0,1-.89-6,29.54,29.54,0,0,1,1-7.3A13.91,13.91,0,0,1,15.54,15.14ZM72,146.06a20.45,20.45,0,0,0-28.27,6.34A19.74,19.74,0,0,0,41,167.86a20.14,20.14,0,0,0,9.07,12.93,20.21,20.21,0,0,0,28.28-6.35,20.11,20.11,0,0,0,2.67-15.57A19.74,19.74,0,0,0,72,146.06Z"/><path class="cls-1" d="M15.42,15a27.21,27.21,0,0,1,11.13-4.9,27.1,27.1,0,0,1,12.14-.33,13.94,13.94,0,0,1,7.87,4.52,25.9,25.9,0,0,1,3.91,6.21,34.58,34.58,0,0,1,1.86,5.75q4.34,22.33,7,55t5.83,48.84l-22.41,5Q39,119.51,27.35,88.53T10.14,35.74a20.85,20.85,0,0,1-.89-6,29.54,29.54,0,0,1,1-7.3A13.91,13.91,0,0,1,15.42,15ZM71.88,145.94a19.71,19.71,0,0,0-15.45-2.7,20.54,20.54,0,0,0-15.52,24.5A20.14,20.14,0,0,0,50,180.67a20.21,20.21,0,0,0,28.28-6.35,20.11,20.11,0,0,0,2.67-15.57A19.74,19.74,0,0,0,71.88,145.94Z"/><path class="cls-1" d="M15.3,14.9A27.21,27.21,0,0,1,26.43,10a27.1,27.1,0,0,1,12.14-.33,13.94,13.94,0,0,1,7.87,4.52,25.9,25.9,0,0,1,3.91,6.21,34.58,34.58,0,0,1,1.86,5.75q4.34,22.34,7,55T65,130L42.6,135q-3.74-15.61-15.37-46.59T10,35.62a21.2,21.2,0,0,1-.88-6,29.54,29.54,0,0,1,1-7.3A13.91,13.91,0,0,1,15.3,14.9ZM71.76,145.81a19.74,19.74,0,0,0-15.45-2.69,20.54,20.54,0,0,0-15.52,24.5,20.14,20.14,0,0,0,9.07,12.93,20.2,20.2,0,0,0,28.27-6.35,20.12,20.12,0,0,0,2.68-15.57A19.78,19.78,0,0,0,71.76,145.81Z"/><path class="cls-1" d="M15.18,14.78a27.21,27.21,0,0,1,11.13-4.9,27.1,27.1,0,0,1,12.14-.33,13.94,13.94,0,0,1,7.87,4.52,25.9,25.9,0,0,1,3.91,6.21A34.58,34.58,0,0,1,52.09,26q4.33,22.34,7,55t5.83,48.84l-22.41,5q-3.73-15.61-15.37-46.59T9.89,35.5a21.2,21.2,0,0,1-.88-6,29.54,29.54,0,0,1,1-7.3A13.87,13.87,0,0,1,15.18,14.78ZM71.64,145.69A19.74,19.74,0,0,0,56.19,143a20.54,20.54,0,0,0-15.52,24.5,20.14,20.14,0,0,0,9.07,12.93A20.2,20.2,0,0,0,78,174.08a20.12,20.12,0,0,0,2.68-15.57A19.78,19.78,0,0,0,71.64,145.69Z"/><path class="cls-1" d="M15.06,14.66a27.21,27.21,0,0,1,11.13-4.9,27.1,27.1,0,0,1,12.14-.33A13.94,13.94,0,0,1,46.2,14a25.9,25.9,0,0,1,3.91,6.21A34.58,34.58,0,0,1,52,25.91q4.34,22.33,7,55t5.83,48.84l-22.41,5Q38.63,119.15,27,88.17T9.77,35.38a21.2,21.2,0,0,1-.88-6,29.67,29.67,0,0,1,1-7.31A13.88,13.88,0,0,1,15.06,14.66ZM71.52,145.57a19.74,19.74,0,0,0-15.45-2.69,20.54,20.54,0,0,0-15.52,24.5,20.14,20.14,0,0,0,9.07,12.93A20.2,20.2,0,0,0,77.89,174a20.12,20.12,0,0,0,2.68-15.57A19.78,19.78,0,0,0,71.52,145.57Z"/><path class="cls-1" d="M14.94,14.54a27.21,27.21,0,0,1,11.13-4.9,27.1,27.1,0,0,1,12.14-.33,13.94,13.94,0,0,1,7.87,4.52A25.9,25.9,0,0,1,50,20a34.58,34.58,0,0,1,1.86,5.75q4.34,22.34,7,55t5.83,48.84l-22.41,5Q38.5,119,26.87,88.05T9.65,35.26a21.2,21.2,0,0,1-.88-6,29.67,29.67,0,0,1,1-7.31A13.88,13.88,0,0,1,14.94,14.54ZM71.4,145.45A19.74,19.74,0,0,0,56,142.76a20.54,20.54,0,0,0-15.52,24.5,20.14,20.14,0,0,0,9.07,12.93,20.2,20.2,0,0,0,28.27-6.35,20.12,20.12,0,0,0,2.68-15.57A19.76,19.76,0,0,0,71.4,145.45Z"/><path class="cls-1" d="M14.82,14.42A27.21,27.21,0,0,1,26,9.52a27.1,27.1,0,0,1,12.14-.33A13.94,13.94,0,0,1,46,13.71a25.9,25.9,0,0,1,3.91,6.21,34.58,34.58,0,0,1,1.86,5.75q4.34,22.34,7,55t5.83,48.84l-22.41,5q-3.73-15.62-15.37-46.59T9.53,35.14a21.2,21.2,0,0,1-.88-6,29.67,29.67,0,0,1,1-7.31A13.88,13.88,0,0,1,14.82,14.42ZM71.28,145.33a19.74,19.74,0,0,0-15.45-2.69,20.54,20.54,0,0,0-15.52,24.5,20.14,20.14,0,0,0,9.07,12.93,20.2,20.2,0,0,0,28.27-6.35,20.12,20.12,0,0,0,2.68-15.57A19.76,19.76,0,0,0,71.28,145.33Z"/><path class="cls-1" d="M14.7,14.3A27.08,27.08,0,0,1,25.83,9.4,27.1,27.1,0,0,1,38,9.07a13.94,13.94,0,0,1,7.87,4.52,25.9,25.9,0,0,1,3.91,6.21,34.58,34.58,0,0,1,1.86,5.75q4.34,22.32,7,55t5.83,48.84L42,134.4q-3.73-15.62-15.37-46.59T9.41,35a21.2,21.2,0,0,1-.88-6,29.67,29.67,0,0,1,1-7.31A13.88,13.88,0,0,1,14.7,14.3ZM71.16,145.21a19.74,19.74,0,0,0-15.45-2.69A20.54,20.54,0,0,0,40.19,167,20.14,20.14,0,0,0,49.26,180a20.2,20.2,0,0,0,28.27-6.35A20.12,20.12,0,0,0,80.21,158,19.76,19.76,0,0,0,71.16,145.21Z"/><path class="cls-1" d="M14.58,14.18a27.08,27.08,0,0,1,11.13-4.9A27.1,27.1,0,0,1,37.85,9a13.94,13.94,0,0,1,7.87,4.52,25.9,25.9,0,0,1,3.91,6.21,34.58,34.58,0,0,1,1.86,5.75q4.34,22.32,7,55t5.83,48.84l-22.41,5q-3.74-15.61-15.37-46.59T9.29,34.9a21.2,21.2,0,0,1-.88-6,29.67,29.67,0,0,1,1-7.31A13.88,13.88,0,0,1,14.58,14.18ZM71,145.09a20.44,20.44,0,0,0-28.27,6.35,19.74,19.74,0,0,0-2.7,15.46,20.14,20.14,0,0,0,9.07,12.93,20.2,20.2,0,0,0,28.27-6.35,20.12,20.12,0,0,0,2.68-15.57A19.76,19.76,0,0,0,71,145.09Z"/><path class="cls-1" d="M14.46,14.06a27.08,27.08,0,0,1,11.13-4.9,27.1,27.1,0,0,1,12.14-.33,13.94,13.94,0,0,1,7.87,4.52,25.9,25.9,0,0,1,3.91,6.21,34.58,34.58,0,0,1,1.86,5.75q4.32,22.32,7,55t5.83,48.84l-22.41,5Q38,118.55,26.39,87.57T9.17,34.78a21.2,21.2,0,0,1-.88-6,29.67,29.67,0,0,1,1-7.31A13.88,13.88,0,0,1,14.46,14.06ZM70.92,145a20.44,20.44,0,0,0-28.27,6.35A19.74,19.74,0,0,0,40,166.78,20.1,20.1,0,0,0,49,179.71a20.2,20.2,0,0,0,28.27-6.35A20.12,20.12,0,0,0,80,157.79,19.76,19.76,0,0,0,70.92,145Z"/><path class="cls-1" d="M14.34,13.94A27.08,27.08,0,0,1,25.47,9a27.1,27.1,0,0,1,12.14-.33,13.94,13.94,0,0,1,7.87,4.52,25.9,25.9,0,0,1,3.91,6.21,34.58,34.58,0,0,1,1.86,5.75q4.32,22.32,7,55T64.05,129l-22.41,5q-3.73-15.61-15.37-46.59T9.05,34.66a21.2,21.2,0,0,1-.88-6,29.67,29.67,0,0,1,1-7.31A13.88,13.88,0,0,1,14.34,13.94ZM70.8,144.85a20.44,20.44,0,0,0-28.27,6.35,19.73,19.73,0,0,0-2.7,15.46,20.1,20.1,0,0,0,9.07,12.93,20.2,20.2,0,0,0,28.27-6.35,20.12,20.12,0,0,0,2.68-15.57A19.76,19.76,0,0,0,70.8,144.85Z"/><path class="cls-1" d="M14.22,13.82a27.08,27.08,0,0,1,11.13-4.9,27.1,27.1,0,0,1,12.14-.33,13.94,13.94,0,0,1,7.87,4.52,25.9,25.9,0,0,1,3.91,6.21,34.58,34.58,0,0,1,1.86,5.75q4.32,22.32,7,55t5.83,48.84l-22.41,5q-3.74-15.61-15.37-46.59T8.93,34.54a21.2,21.2,0,0,1-.88-6,29.67,29.67,0,0,1,1-7.31A13.88,13.88,0,0,1,14.22,13.82ZM70.68,144.73a20.44,20.44,0,0,0-28.27,6.35,19.73,19.73,0,0,0-2.7,15.46,20.1,20.1,0,0,0,9.07,12.93,20.2,20.2,0,0,0,28.27-6.35,20.12,20.12,0,0,0,2.68-15.57A19.76,19.76,0,0,0,70.68,144.73Z"/><path class="cls-1" d="M14.1,13.7A27,27,0,0,1,25.22,8.8a27.14,27.14,0,0,1,12.15-.33A14,14,0,0,1,45.24,13a25.9,25.9,0,0,1,3.91,6.21A34.58,34.58,0,0,1,51,25q4.32,22.32,7,55t5.83,48.84l-22.41,5Q37.66,118.19,26,87.21T8.81,34.42a21.2,21.2,0,0,1-.88-6,29.67,29.67,0,0,1,1-7.31A13.83,13.83,0,0,1,14.1,13.7ZM70.56,144.61A20.44,20.44,0,0,0,42.29,151a19.73,19.73,0,0,0-2.7,15.46,20.1,20.1,0,0,0,9.07,12.93A20.2,20.2,0,0,0,76.93,173a20.12,20.12,0,0,0,2.68-15.57A19.76,19.76,0,0,0,70.56,144.61Z"/><path class="cls-1" d="M14,13.58A27,27,0,0,1,25.1,8.68a27.14,27.14,0,0,1,12.15-.33,14,14,0,0,1,7.87,4.52A26.21,26.21,0,0,1,49,19.08a34.58,34.58,0,0,1,1.86,5.75q4.32,22.32,7,55t5.83,48.84l-22.41,5q-3.73-15.62-15.37-46.59T8.69,34.3a21.2,21.2,0,0,1-.88-6A29.67,29.67,0,0,1,8.8,21,13.83,13.83,0,0,1,14,13.58ZM70.44,144.49a20.44,20.44,0,0,0-28.27,6.35,19.73,19.73,0,0,0-2.7,15.46,20.1,20.1,0,0,0,9.07,12.93,20.2,20.2,0,0,0,28.27-6.35,20.12,20.12,0,0,0,2.68-15.57A19.76,19.76,0,0,0,70.44,144.49Z"/><path class="cls-1" d="M13.86,13.46A27,27,0,0,1,25,8.56a27.14,27.14,0,0,1,12.15-.33A14,14,0,0,1,45,12.75,26.21,26.21,0,0,1,48.91,19a34.58,34.58,0,0,1,1.86,5.75q4.32,22.32,7,55t5.83,48.84l-22.41,5Q37.43,117.95,25.79,87T8.57,34.18a21.2,21.2,0,0,1-.88-6,29.67,29.67,0,0,1,1-7.31A13.83,13.83,0,0,1,13.86,13.46ZM70.32,144.37a20.44,20.44,0,0,0-28.27,6.35,19.73,19.73,0,0,0-2.7,15.46,20.06,20.06,0,0,0,9.07,12.92,20.18,20.18,0,0,0,28.27-6.34,20.16,20.16,0,0,0,2.68-15.57A19.76,19.76,0,0,0,70.32,144.37Z"/><path class="cls-1" d="M13.74,13.34a27,27,0,0,1,11.12-4.9A27.14,27.14,0,0,1,37,8.11a14,14,0,0,1,7.87,4.52,26.21,26.21,0,0,1,3.91,6.21,34.58,34.58,0,0,1,1.86,5.75q4.32,22.32,7,55t5.83,48.84l-22.41,5Q37.3,117.83,25.67,86.85T8.45,34.06a21.2,21.2,0,0,1-.88-6,29.67,29.67,0,0,1,1-7.31A13.83,13.83,0,0,1,13.74,13.34ZM70.2,144.25a20.44,20.44,0,0,0-28.27,6.35,19.73,19.73,0,0,0-2.7,15.46A20.06,20.06,0,0,0,48.3,179a20.18,20.18,0,0,0,28.27-6.34,20.16,20.16,0,0,0,2.68-15.57A19.76,19.76,0,0,0,70.2,144.25Z"/><path class="cls-1" d="M13.62,13.22a27,27,0,0,1,11.12-4.9A27.14,27.14,0,0,1,36.89,8a14,14,0,0,1,7.87,4.52,26.21,26.21,0,0,1,3.91,6.21,34.58,34.58,0,0,1,1.86,5.75q4.32,22.32,7,55t5.83,48.84l-22.41,5q-3.73-15.6-15.37-46.58T8.33,33.94a21.2,21.2,0,0,1-.88-6,29.67,29.67,0,0,1,1-7.31A13.83,13.83,0,0,1,13.62,13.22ZM70.08,144.13a20.44,20.44,0,0,0-28.27,6.35,19.73,19.73,0,0,0-2.7,15.46,20.06,20.06,0,0,0,9.07,12.92,20.18,20.18,0,0,0,28.27-6.34A20.17,20.17,0,0,0,79.13,157,19.79,19.79,0,0,0,70.08,144.13Z"/><path class="cls-1" d="M13.5,13.1A26.9,26.9,0,0,1,24.62,8.2a27.14,27.14,0,0,1,12.15-.33,14,14,0,0,1,7.87,4.52,26.37,26.37,0,0,1,3.91,6.2,35,35,0,0,1,1.86,5.76q4.32,22.32,7,55t5.83,48.84l-22.41,5q-3.73-15.6-15.37-46.58T8.21,33.82a21.2,21.2,0,0,1-.88-6,29.67,29.67,0,0,1,1-7.31A13.83,13.83,0,0,1,13.5,13.1ZM70,144a20.44,20.44,0,0,0-28.27,6.35A19.73,19.73,0,0,0,39,165.82a20.06,20.06,0,0,0,9.07,12.92,20.18,20.18,0,0,0,28.27-6.34A20.17,20.17,0,0,0,79,156.83,19.79,19.79,0,0,0,70,144Z"/><path class="cls-1" d="M13.38,13A26.9,26.9,0,0,1,24.5,8.08a27.14,27.14,0,0,1,12.15-.33,14,14,0,0,1,7.87,4.52,26.37,26.37,0,0,1,3.91,6.2,35,35,0,0,1,1.86,5.76q4.32,22.32,7,55t5.83,48.84l-22.41,5q-3.74-15.6-15.37-46.58T8.09,33.7a20.85,20.85,0,0,1-.88-6,29.67,29.67,0,0,1,1-7.31A13.83,13.83,0,0,1,13.38,13ZM69.84,143.89a20.44,20.44,0,0,0-28.27,6.35,19.73,19.73,0,0,0-2.7,15.46,20.06,20.06,0,0,0,9.07,12.92,20.18,20.18,0,0,0,28.27-6.34,20.17,20.17,0,0,0,2.68-15.57A19.79,19.79,0,0,0,69.84,143.89Z"/><path class="cls-1" d="M13.26,12.86A26.9,26.9,0,0,1,24.38,8a27.14,27.14,0,0,1,12.15-.33,14,14,0,0,1,7.87,4.52,26.37,26.37,0,0,1,3.91,6.2,35,35,0,0,1,1.86,5.76q4.32,22.32,7,55T63,127.93l-22.41,5q-3.73-15.6-15.37-46.58T8,33.58a20.85,20.85,0,0,1-.88-6,29.67,29.67,0,0,1,1-7.31A13.83,13.83,0,0,1,13.26,12.86ZM69.72,143.77a20.44,20.44,0,0,0-28.27,6.35,19.73,19.73,0,0,0-2.7,15.46,20.06,20.06,0,0,0,9.07,12.92,20.18,20.18,0,0,0,28.27-6.34,20.17,20.17,0,0,0,2.68-15.57A19.79,19.79,0,0,0,69.72,143.77Z"/><path class="cls-1" d="M13.14,12.74a26.9,26.9,0,0,1,11.12-4.9,27.14,27.14,0,0,1,12.15-.33A14,14,0,0,1,44.28,12a26.37,26.37,0,0,1,3.91,6.2A35,35,0,0,1,50.05,24q4.32,22.32,7,55t5.82,48.85l-22.4,5q-3.73-15.6-15.37-46.58T7.85,33.46a20.85,20.85,0,0,1-.88-6,29.67,29.67,0,0,1,1-7.31A13.83,13.83,0,0,1,13.14,12.74ZM69.6,143.65A20.44,20.44,0,0,0,41.33,150a19.73,19.73,0,0,0-2.7,15.46,20.06,20.06,0,0,0,9.07,12.92A20.18,20.18,0,0,0,76,172a20.17,20.17,0,0,0,2.68-15.57A19.79,19.79,0,0,0,69.6,143.65Z"/><path class="cls-1" d="M13,12.62a26.9,26.9,0,0,1,11.12-4.9,27.14,27.14,0,0,1,12.15-.33,14,14,0,0,1,7.87,4.52,26.37,26.37,0,0,1,3.91,6.2,35,35,0,0,1,1.86,5.76q4.32,22.32,7,55t5.82,48.85l-22.4,5Q36.58,117.11,25,86.13T7.73,33.34a20.85,20.85,0,0,1-.88-6,29.67,29.67,0,0,1,1-7.31A13.83,13.83,0,0,1,13,12.62ZM69.48,143.53a20.44,20.44,0,0,0-28.27,6.35,19.73,19.73,0,0,0-2.7,15.46,20.06,20.06,0,0,0,9.07,12.92,20.18,20.18,0,0,0,28.27-6.34,20.17,20.17,0,0,0,2.68-15.57A19.79,19.79,0,0,0,69.48,143.53Z"/><path class="cls-1" d="M12.9,12.5A26.9,26.9,0,0,1,24,7.6a27.14,27.14,0,0,1,12.15-.33A13.92,13.92,0,0,1,44,11.79,26.37,26.37,0,0,1,48,18a35.18,35.18,0,0,1,1.86,5.75q4.32,22.34,7,55t5.82,48.85l-22.4,5Q36.47,117,24.83,86T7.61,33.22a20.85,20.85,0,0,1-.88-6,29.67,29.67,0,0,1,1-7.31A13.83,13.83,0,0,1,12.9,12.5ZM69.36,143.41a20.45,20.45,0,0,0-28.28,6.35,19.77,19.77,0,0,0-2.69,15.46,20.06,20.06,0,0,0,9.07,12.92,20.18,20.18,0,0,0,28.27-6.34,20.17,20.17,0,0,0,2.68-15.57A19.79,19.79,0,0,0,69.36,143.41Z"/><path class="cls-1" d="M12.78,12.38A26.9,26.9,0,0,1,23.9,7.48a27.14,27.14,0,0,1,12.15-.33,13.92,13.92,0,0,1,7.87,4.52,26.37,26.37,0,0,1,3.91,6.2,35.18,35.18,0,0,1,1.86,5.75q4.32,22.33,7,55t5.82,48.84l-22.4,5q-3.73-15.6-15.37-46.58T7.49,33.1a20.85,20.85,0,0,1-.88-6,29.67,29.67,0,0,1,1-7.31A13.83,13.83,0,0,1,12.78,12.38ZM69.24,143.29A20.45,20.45,0,0,0,41,149.64a19.75,19.75,0,0,0-2.69,15.45A20.06,20.06,0,0,0,47.34,178a20.18,20.18,0,0,0,28.27-6.34,20.17,20.17,0,0,0,2.68-15.57A19.79,19.79,0,0,0,69.24,143.29Z"/><path class="cls-1" d="M12.66,12.26a26.9,26.9,0,0,1,11.12-4.9A27.14,27.14,0,0,1,35.93,7a13.92,13.92,0,0,1,7.87,4.52,26.37,26.37,0,0,1,3.91,6.2,35.18,35.18,0,0,1,1.86,5.75q4.32,22.34,7,55t5.82,48.84l-22.4,5q-3.74-15.6-15.37-46.58T7.37,33a20.85,20.85,0,0,1-.88-6,29.67,29.67,0,0,1,1-7.31A13.83,13.83,0,0,1,12.66,12.26ZM69.12,143.17a20.45,20.45,0,0,0-28.28,6.35A19.75,19.75,0,0,0,38.15,165a20.06,20.06,0,0,0,9.07,12.93,20.18,20.18,0,0,0,28.27-6.34A20.17,20.17,0,0,0,78.17,156,19.79,19.79,0,0,0,69.12,143.17Z"/><path class="cls-1" d="M12.54,12.14a26.9,26.9,0,0,1,11.12-4.9,27.14,27.14,0,0,1,12.15-.33,13.92,13.92,0,0,1,7.87,4.52,26.37,26.37,0,0,1,3.91,6.2,35.18,35.18,0,0,1,1.86,5.75q4.32,22.34,7,55t5.82,48.84l-22.4,5q-3.73-15.6-15.37-46.58T7.25,32.86a20.85,20.85,0,0,1-.88-6,29.67,29.67,0,0,1,1-7.31A13.83,13.83,0,0,1,12.54,12.14ZM69,143.05a20.45,20.45,0,0,0-28.28,6.35A19.75,19.75,0,0,0,38,164.85a20.06,20.06,0,0,0,9.07,12.93,20.18,20.18,0,0,0,28.27-6.34,20.17,20.17,0,0,0,2.68-15.57A19.79,19.79,0,0,0,69,143.05Z"/><path class="cls-1" d="M12.42,12a26.9,26.9,0,0,1,11.12-4.9,27.14,27.14,0,0,1,12.15-.33,13.92,13.92,0,0,1,7.87,4.52,26.37,26.37,0,0,1,3.91,6.2,35.18,35.18,0,0,1,1.86,5.75q4.32,22.33,7,55t5.82,48.84l-22.4,5Q36,116.51,24.35,85.53T7.13,32.74a20.85,20.85,0,0,1-.88-6,29.67,29.67,0,0,1,1-7.31A13.83,13.83,0,0,1,12.42,12ZM68.88,142.93a20.45,20.45,0,0,0-28.28,6.35,19.75,19.75,0,0,0-2.69,15.45A20.06,20.06,0,0,0,47,177.66a20.18,20.18,0,0,0,28.27-6.34,20.17,20.17,0,0,0,2.68-15.57A19.79,19.79,0,0,0,68.88,142.93Z"/><path class="cls-1" d="M12.3,11.9A26.9,26.9,0,0,1,23.42,7a27.14,27.14,0,0,1,12.15-.33,13.92,13.92,0,0,1,7.87,4.52,26.37,26.37,0,0,1,3.91,6.2,36.17,36.17,0,0,1,1.86,5.75q4.32,22.34,7,55T62,127l-22.4,5q-3.74-15.6-15.37-46.58T7,32.62a20.85,20.85,0,0,1-.88-6,29.67,29.67,0,0,1,1-7.31A13.83,13.83,0,0,1,12.3,11.9ZM68.76,142.81a20.45,20.45,0,0,0-28.28,6.35,19.75,19.75,0,0,0-2.69,15.45,20.08,20.08,0,0,0,9.06,12.93,20.19,20.19,0,0,0,28.28-6.34,20.17,20.17,0,0,0,2.68-15.57A19.79,19.79,0,0,0,68.76,142.81Z"/><path class="cls-1" d="M12.18,11.78A26.9,26.9,0,0,1,23.3,6.88a27.14,27.14,0,0,1,12.15-.33,13.92,13.92,0,0,1,7.87,4.52,26.37,26.37,0,0,1,3.91,6.2A36.17,36.17,0,0,1,49.09,23q4.32,22.33,7,55t5.82,48.84l-22.4,5q-3.73-15.6-15.37-46.58T6.89,32.5a20.85,20.85,0,0,1-.88-6,29.67,29.67,0,0,1,1-7.31A13.83,13.83,0,0,1,12.18,11.78ZM68.64,142.69A20.45,20.45,0,0,0,40.36,149a19.75,19.75,0,0,0-2.69,15.45,20.1,20.1,0,0,0,9.06,12.93A20.19,20.19,0,0,0,75,171.08a20.17,20.17,0,0,0,2.68-15.57A19.79,19.79,0,0,0,68.64,142.69Z"/><path class="cls-2" d="M12.18,11.78A26.9,26.9,0,0,1,23.3,6.88a27.14,27.14,0,0,1,12.15-.33,13.92,13.92,0,0,1,7.87,4.52,26.37,26.37,0,0,1,3.91,6.2A36.17,36.17,0,0,1,49.09,23q4.32,22.33,7,55t5.82,48.84l-22.4,5q-3.73-15.6-15.37-46.58T6.89,32.5a20.85,20.85,0,0,1-.88-6,29.67,29.67,0,0,1,1-7.31A13.83,13.83,0,0,1,12.18,11.78ZM68.64,142.69A20.45,20.45,0,0,0,40.36,149a19.75,19.75,0,0,0-2.69,15.45,20.1,20.1,0,0,0,9.06,12.93A20.19,20.19,0,0,0,75,171.08a20.17,20.17,0,0,0,2.68-15.57A19.79,19.79,0,0,0,68.64,142.69Z"/><path class="cls-3" d="M12.18,11.78A26.9,26.9,0,0,1,23.3,6.88a27.14,27.14,0,0,1,12.15-.33,13.92,13.92,0,0,1,7.87,4.52,26.37,26.37,0,0,1,3.91,6.2A36.17,36.17,0,0,1,49.09,23q4.32,22.33,7,55t5.82,48.84l-22.4,5q-3.73-15.6-15.37-46.58T6.89,32.5a20.85,20.85,0,0,1-.88-6,29.67,29.67,0,0,1,1-7.31A13.83,13.83,0,0,1,12.18,11.78ZM68.64,142.69A20.45,20.45,0,0,0,40.36,149a19.75,19.75,0,0,0-2.69,15.45,20.1,20.1,0,0,0,9.06,12.93A20.19,20.19,0,0,0,75,171.08a20.17,20.17,0,0,0,2.68-15.57A19.79,19.79,0,0,0,68.64,142.69Z"/></g></g></g></svg>