<svg xmlns="http://www.w3.org/2000/svg" viewBox="0 0 162.71 141.92"><defs><style>.cls-1{fill:#2b2928;stroke:#2b2928;stroke-miterlimit:10;stroke-width:12.01px;}</style></defs><g id="Layer_2" data-name="Layer 2"><g id="Layer_1-2" data-name="Layer 1"><g id="DisgruntledSteam"><path class="cls-1" d="M74.82,135.12c-2.43-4.12-3.26-8.05.56-12,2.53-2.59,6.11-4.66,9.36-6.83,3.93-2.64,9-5.93,7.6-10S84.08,99.24,79,97.19c-7.85-3.16-16.3-5.57-24.29-8.55-2.62-1-7.49-2.43-8.95-4.28s1-2.67,3.45-3.68c8.24-3.44,18.21-5.2,27.42-7.13,8.84-1.84,17.76-3.52,26.55-5.48,6.08-1.36,13-2.74,18.13-5.38,9.69-5-.92-9.6-8.23-11.59C95,46.21,75.22,44,56.31,41.05c-8.8-1.35-17.62-2.71-26.3-4.37-3.27-.62-6.55-1.27-9.73-2.08-.66-.17-6.11-2.3-6.29-2.25.19-.05.57,1.38.28,1.37a18.9,18.9,0,0,0,2.3-.95,67.45,67.45,0,0,1,8.49-2.06c8.36-1.67,16.94-2.85,25.5-4,23-3,46.13-5.31,69.08-8.38,8.28-1.1,16.89-2.09,24.83-4,4.11-1,9.41-2.15,11.74-4.83s-3.79-4.94-6-2.35c-1.59,1.84-10.29,2.43-13,2.89-8.41,1.45-17,2.55-25.5,3.61-21.1,2.61-42.31,4.89-63.35,7.72-8.78,1.18-17.6,2.41-26.17,4.16-4.51.93-10.33,2-13.74,4.31-8.42,5.8,7.51,9.65,13.51,11,18.06,3.9,37.06,6,55.55,8.8,9.6,1.45,19.24,2.94,28.58,5a59.15,59.15,0,0,1,9.74,2.72c.53.22,2.08.69,2.24,1.13,0,0-.08-.2-.77.33-2,1.48-6.17,2.36-8.82,3.07-4,1.1-8.22,2-12.37,2.93-9.47,2.06-19,3.94-28.45,6.08-7.11,1.61-32.44,6-28.56,14,2.1,4.3,11.27,6.71,16.75,8.48,9.52,3.06,21.43,5.58,29.06,10.63,8.91,5.9-5.37,11.52-10.49,16.13-5.62,5.06-5.27,10-1.31,15.56.47.64,2.15.18,1.75-.49Z"/></g></g></g></svg>