<svg xmlns="http://www.w3.org/2000/svg" xmlns:xlink="http://www.w3.org/1999/xlink" viewBox="0 0 128.77 197.42"><defs><style>.cls-1,.cls-3{fill:none;stroke-miterlimit:10;}.cls-1{stroke:#2b2928;stroke-width:12.01px;}.cls-2{fill:url(#New_Gradient_Swatch_copy);}.cls-3{stroke:#fff;stroke-width:2.4px;}</style><linearGradient id="New_Gradient_Swatch_copy" x1="7.41" y1="94.5" x2="114.36" y2="94.5" gradientUnits="userSpaceOnUse"><stop offset="0" stop-color="#ff2c52"/><stop offset="1" stop-color="#ffa900"/></linearGradient></defs><g id="Layer_2" data-name="Layer 2"><g id="Layer_1-2" data-name="Layer 1"><g id="Interro"><path d="M86.05,128.7,60,134.56q-5.64-17-1.15-30.59Q60.33,98.62,66.41,90A88.38,88.38,0,0,0,76,73.16a27.77,27.77,0,0,0,1.5-17.25q-1.71-7.6-7.41-11.13T55.89,43.17q-16.53,3.7-26.43,23.75l-22-32.06Q24,13.1,53.56,7.37q22.38-4.11,38.3,4.19t20.67,28.49q6.69,29.81-11.11,50.24-11,13-13.33,16.93A24.84,24.84,0,0,0,86.05,128.7ZM62.9,151.26a19.34,19.34,0,0,1,12.71-9,20.56,20.56,0,0,1,24.51,15.52,20.14,20.14,0,0,1-2.68,15.56,19.57,19.57,0,0,1-12.79,9.16,19.24,19.24,0,0,1-15.38-2.84,20.34,20.34,0,0,1-9-12.95A20,20,0,0,1,62.9,151.26Z"/><path class="cls-1" d="M94.46,137.11,68.36,143q-5.64-17-1.15-30.59,1.53-5.35,7.61-13.93a88.38,88.38,0,0,0,9.57-16.88,27.77,27.77,0,0,0,1.5-17.25q-1.71-7.6-7.41-11.13T64.3,51.58q-16.53,3.7-26.43,23.75l-22-32.06Q32.41,21.51,62,15.78q22.38-4.11,38.3,4.19t20.67,28.49q6.69,29.81-11.11,50.24-11,13-13.33,16.93A24.84,24.84,0,0,0,94.46,137.11ZM71.31,159.67a19.34,19.34,0,0,1,12.71-9,20.55,20.55,0,0,1,24.5,15.51,20.11,20.11,0,0,1-2.67,15.57,19.57,19.57,0,0,1-12.79,9.16,19.24,19.24,0,0,1-15.38-2.84,20.3,20.3,0,0,1-9-13A20,20,0,0,1,71.31,159.67Z"/><path class="cls-1" d="M94.34,137l-26.1,5.86q-5.64-17-1.15-30.59,1.53-5.36,7.61-13.93a88.38,88.38,0,0,0,9.57-16.88,27.77,27.77,0,0,0,1.5-17.25q-1.71-7.61-7.41-11.13T64.18,51.46q-16.53,3.7-26.43,23.75l-22-32.06Q32.29,21.39,61.85,15.66q22.38-4.11,38.3,4.19t20.67,28.49q6.69,29.8-11.11,50.24-11,13-13.33,16.93A24.84,24.84,0,0,0,94.34,137ZM71.19,159.55a19.34,19.34,0,0,1,12.71-9A20.55,20.55,0,0,1,108.4,166a20.11,20.11,0,0,1-2.67,15.57,19.57,19.57,0,0,1-12.79,9.16,19.24,19.24,0,0,1-15.38-2.84,20.3,20.3,0,0,1-9-13A20,20,0,0,1,71.19,159.55Z"/><path class="cls-1" d="M94.22,136.87l-26.1,5.86q-5.64-17-1.15-30.59,1.53-5.36,7.61-13.93a88.38,88.38,0,0,0,9.57-16.88,27.77,27.77,0,0,0,1.5-17.25Q83.94,56.47,78.24,53T64.06,51.34Q47.53,55,37.63,75.09L15.58,43Q32.17,21.27,61.73,15.54q22.38-4.11,38.3,4.19T120.7,48.22Q127.39,78,109.59,98.46q-11,13-13.33,16.93A24.81,24.81,0,0,0,94.22,136.87ZM71.07,159.43a19.34,19.34,0,0,1,12.71-9,20.55,20.55,0,0,1,24.5,15.51,20.11,20.11,0,0,1-2.67,15.57,19.59,19.59,0,0,1-12.79,9.16,19.24,19.24,0,0,1-15.38-2.84,20.3,20.3,0,0,1-9-12.95A20,20,0,0,1,71.07,159.43Z"/><path class="cls-1" d="M94.1,136.75,68,142.61q-5.64-17-1.15-30.59,1.53-5.35,7.61-13.93A88.38,88.38,0,0,0,84,81.21,27.77,27.77,0,0,0,85.53,64q-1.71-7.6-7.41-11.13T63.94,51.22Q47.41,54.93,37.51,75l-22-32.06Q32.05,21.15,61.61,15.42,84,11.31,99.91,19.61T120.58,48.1q6.69,29.81-11.11,50.24-11,13-13.33,16.93A24.81,24.81,0,0,0,94.1,136.75ZM71,159.31a19.34,19.34,0,0,1,12.71-9,20.55,20.55,0,0,1,24.5,15.51,20.11,20.11,0,0,1-2.67,15.57,19.58,19.58,0,0,1-12.79,9.15,19.2,19.2,0,0,1-15.38-2.83,20.3,20.3,0,0,1-9-12.95A20,20,0,0,1,71,159.31Z"/><path class="cls-1" d="M94,136.63l-26.1,5.86q-5.64-17-1.15-30.59,1.53-5.37,7.61-13.93a88.69,88.69,0,0,0,9.57-16.88,27.77,27.77,0,0,0,1.5-17.25Q83.7,56.24,78,52.71T63.82,51.1q-16.55,3.7-26.43,23.75l-22-32.06Q31.93,21,61.49,15.3q22.38-4.11,38.3,4.19T120.46,48q6.69,29.81-11.11,50.24-11,13-13.33,16.93A24.81,24.81,0,0,0,94,136.63ZM70.83,159.19a19.34,19.34,0,0,1,12.71-9A20.55,20.55,0,0,1,108,165.68a20.11,20.11,0,0,1-2.67,15.57,19.58,19.58,0,0,1-12.79,9.15,19.2,19.2,0,0,1-15.38-2.83,20.3,20.3,0,0,1-9-12.95A20,20,0,0,1,70.83,159.19Z"/><path class="cls-1" d="M93.86,136.51l-26.1,5.86q-5.64-17-1.15-30.59,1.53-5.37,7.61-13.93A88.69,88.69,0,0,0,83.79,81a27.77,27.77,0,0,0,1.5-17.25q-1.71-7.61-7.41-11.13T63.7,51Q47.16,54.69,37.27,74.73L15.22,42.67Q31.81,20.91,61.37,15.18q22.38-4.11,38.3,4.19t20.67,28.49Q127,77.67,109.23,98.1q-11,13-13.34,16.93A24.84,24.84,0,0,0,93.86,136.51ZM70.71,159.07a19.34,19.34,0,0,1,12.71-9,20.55,20.55,0,0,1,24.5,15.51,20.11,20.11,0,0,1-2.67,15.57,19.57,19.57,0,0,1-12.8,9.15,19.18,19.18,0,0,1-15.37-2.83,20.3,20.3,0,0,1-9-12.95A20,20,0,0,1,70.71,159.07Z"/><path class="cls-1" d="M93.74,136.39l-26.1,5.86q-5.64-17-1.15-30.59Q68,106.29,74.1,97.73a88.69,88.69,0,0,0,9.57-16.88,27.77,27.77,0,0,0,1.5-17.25Q83.46,56,77.76,52.47T63.57,50.86Q47,54.57,37.15,74.61l-22-32.06Q31.69,20.79,61.25,15.06,83.63,11,99.55,19.25t20.67,28.49Q126.91,77.55,109.11,98q-11,13-13.34,16.93A24.84,24.84,0,0,0,93.74,136.39ZM70.59,159a19.34,19.34,0,0,1,12.71-9,20.55,20.55,0,0,1,24.5,15.51A20.11,20.11,0,0,1,105.13,181a19.57,19.57,0,0,1-12.8,9.15A19.18,19.18,0,0,1,77,187.33a20.3,20.3,0,0,1-9-13A20,20,0,0,1,70.59,159Z"/><path class="cls-1" d="M93.62,136.27l-26.1,5.86q-5.64-17-1.15-30.59Q67.9,106.17,74,97.61a88.69,88.69,0,0,0,9.57-16.88,27.77,27.77,0,0,0,1.5-17.25q-1.71-7.6-7.41-11.13T63.45,50.74Q46.92,54.45,37,74.49L15,42.43Q31.57,20.67,61.13,14.94q22.38-4.11,38.3,4.19T120.1,47.62Q126.79,77.43,109,97.86q-11,13-13.34,16.93A24.84,24.84,0,0,0,93.62,136.27ZM70.47,158.83a19.34,19.34,0,0,1,12.71-9,20.55,20.55,0,0,1,24.5,15.51A20.11,20.11,0,0,1,105,180.89,19.57,19.57,0,0,1,92.21,190a19.18,19.18,0,0,1-15.37-2.83,20.3,20.3,0,0,1-9-13A19.94,19.94,0,0,1,70.47,158.83Z"/><path class="cls-1" d="M93.5,136.15,67.4,142q-5.64-17-1.15-30.59,1.53-5.37,7.61-13.93a88.69,88.69,0,0,0,9.57-16.88,27.77,27.77,0,0,0,1.5-17.25q-1.71-7.61-7.41-11.13T63.33,50.62Q46.8,54.33,36.91,74.37l-22-32.06Q31.45,20.55,61,14.82,83.39,10.71,99.31,19T120,47.5q6.69,29.81-11.11,50.24-11,13-13.34,16.93A24.84,24.84,0,0,0,93.5,136.15ZM70.35,158.71a19.34,19.34,0,0,1,12.71-9,20.53,20.53,0,0,1,24.5,15.51,20.11,20.11,0,0,1-2.67,15.57,19.57,19.57,0,0,1-12.8,9.15,19.18,19.18,0,0,1-15.37-2.83,20.3,20.3,0,0,1-9-13A19.94,19.94,0,0,1,70.35,158.71Z"/><path class="cls-1" d="M93.38,136l-26.1,5.86q-5.66-17-1.15-30.59,1.53-5.37,7.61-13.93a88.69,88.69,0,0,0,9.57-16.88,27.77,27.77,0,0,0,1.5-17.25q-1.71-7.6-7.41-11.13T63.21,50.5q-16.53,3.7-26.42,23.75l-22-32.06Q31.33,20.43,60.89,14.7q22.38-4.11,38.3,4.19t20.67,28.49q6.69,29.81-11.11,50.24-11,13-13.34,16.93A24.84,24.84,0,0,0,93.38,136ZM70.23,158.59a19.34,19.34,0,0,1,12.71-9,20.53,20.53,0,0,1,24.5,15.51,20.11,20.11,0,0,1-2.67,15.57A19.57,19.57,0,0,1,92,189.8,19.18,19.18,0,0,1,76.6,187a20.3,20.3,0,0,1-9-12.95A19.94,19.94,0,0,1,70.23,158.59Z"/><path class="cls-1" d="M93.26,135.91l-26.1,5.86q-5.65-17-1.15-30.59,1.53-5.37,7.61-13.93a88.69,88.69,0,0,0,9.57-16.88,27.77,27.77,0,0,0,1.5-17.25Q83,55.52,77.28,52T63.09,50.38q-16.53,3.7-26.42,23.75L14.62,42.07q16.59-21.76,46.15-27.5,22.38-4.1,38.29,4.2t20.68,28.49q6.69,29.81-11.11,50.24-11,13-13.34,16.93A24.84,24.84,0,0,0,93.26,135.91ZM70.11,158.47a19.34,19.34,0,0,1,12.71-9A20.53,20.53,0,0,1,107.32,165a20.11,20.11,0,0,1-2.67,15.57,19.57,19.57,0,0,1-12.8,9.15,19.18,19.18,0,0,1-15.37-2.83,20.3,20.3,0,0,1-9-12.95A19.94,19.94,0,0,1,70.11,158.47Z"/><path class="cls-1" d="M93.14,135.79,67,141.65q-5.66-17-1.15-30.59,1.53-5.37,7.61-13.93a88.69,88.69,0,0,0,9.57-16.88A27.77,27.77,0,0,0,84.57,63q-1.71-7.61-7.41-11.13T63,50.26Q46.44,54,36.55,74L14.5,42q16.59-21.76,46.15-27.5Q83,10.36,98.94,18.65t20.68,28.49q6.69,29.81-11.11,50.24-11,13-13.34,16.93A24.84,24.84,0,0,0,93.14,135.79ZM70,158.35a19.34,19.34,0,0,1,12.71-9,20.53,20.53,0,0,1,24.5,15.51,20.11,20.11,0,0,1-2.67,15.57,19.57,19.57,0,0,1-12.8,9.15,19.18,19.18,0,0,1-15.37-2.83,20.3,20.3,0,0,1-9-12.95A19.94,19.94,0,0,1,70,158.35Z"/><path class="cls-1" d="M93,135.67l-26.1,5.86q-5.66-17-1.15-30.59Q67.3,105.57,73.38,97A88.69,88.69,0,0,0,83,80.13a27.77,27.77,0,0,0,1.5-17.25Q82.74,55.28,77,51.75T62.85,50.14q-16.53,3.7-26.42,23.75l-22-32.06Q31,20.07,60.53,14.33q22.38-4.1,38.29,4.2T119.5,47q6.69,29.81-11.11,50.24-11,13-13.34,16.93A24.84,24.84,0,0,0,93,135.67ZM69.87,158.23a19.34,19.34,0,0,1,12.71-9,20.53,20.53,0,0,1,24.5,15.51,20.11,20.11,0,0,1-2.67,15.57,19.57,19.57,0,0,1-12.8,9.15,19.18,19.18,0,0,1-15.37-2.83,20.3,20.3,0,0,1-9-13A19.94,19.94,0,0,1,69.87,158.23Z"/><path class="cls-1" d="M92.9,135.55l-26.1,5.86q-5.65-17-1.15-30.59,1.53-5.37,7.61-13.93A88.69,88.69,0,0,0,82.83,80a27.77,27.77,0,0,0,1.5-17.25q-1.71-7.6-7.41-11.13T62.73,50Q46.2,53.73,36.31,73.77L14.26,41.71q16.59-21.76,46.15-27.5,22.38-4.1,38.29,4.2T119.38,46.9q6.69,29.81-11.11,50.24-11,13-13.34,16.93A24.84,24.84,0,0,0,92.9,135.55ZM69.75,158.11a19.34,19.34,0,0,1,12.71-9A20.53,20.53,0,0,1,107,164.6a20.11,20.11,0,0,1-2.67,15.57,19.57,19.57,0,0,1-12.8,9.15,19.18,19.18,0,0,1-15.37-2.83,20.3,20.3,0,0,1-9-13A19.93,19.93,0,0,1,69.75,158.11Z"/><path class="cls-1" d="M92.78,135.43l-26.1,5.86q-5.66-17-1.15-30.59,1.53-5.37,7.61-13.93a88.69,88.69,0,0,0,9.57-16.88,27.84,27.84,0,0,0,1.5-17.25Q82.5,55,76.8,51.51T62.61,49.9q-16.53,3.7-26.42,23.75l-22-32.06q16.59-21.77,46.15-27.5,22.38-4.1,38.29,4.2t20.68,28.49Q126,76.59,108.15,97q-11,13-13.34,16.93A24.84,24.84,0,0,0,92.78,135.43ZM69.63,158a19.34,19.34,0,0,1,12.71-9,20.53,20.53,0,0,1,24.5,15.51,20.11,20.11,0,0,1-2.67,15.57,19.57,19.57,0,0,1-12.8,9.15A19.18,19.18,0,0,1,76,186.37a20.3,20.3,0,0,1-9-13A19.93,19.93,0,0,1,69.63,158Z"/><path class="cls-1" d="M92.66,135.31l-26.1,5.86q-5.66-17-1.15-30.59,1.53-5.37,7.61-13.93a88.69,88.69,0,0,0,9.57-16.88,27.84,27.84,0,0,0,1.5-17.25q-1.71-7.6-7.41-11.13T62.49,49.78Q46,53.49,36.07,73.53L14,41.47Q30.61,19.71,60.17,14q22.38-4.1,38.29,4.2t20.68,28.49Q125.83,76.47,108,96.9q-11,13-13.34,16.93A24.81,24.81,0,0,0,92.66,135.31ZM69.51,157.87a19.39,19.39,0,0,1,12.71-9,20.54,20.54,0,0,1,24.5,15.52,20.11,20.11,0,0,1-2.67,15.57,19.57,19.57,0,0,1-12.8,9.15,19.18,19.18,0,0,1-15.37-2.83,20.3,20.3,0,0,1-9-12.95A19.89,19.89,0,0,1,69.51,157.87Z"/><path class="cls-1" d="M92.54,135.19l-26.1,5.86q-5.65-17-1.15-30.59,1.53-5.37,7.61-13.93a88.69,88.69,0,0,0,9.57-16.88A27.84,27.84,0,0,0,84,62.4q-1.71-7.6-7.41-11.13T62.37,49.66Q45.84,53.37,36,73.41L13.9,41.35q16.59-21.76,46.15-27.5,22.38-4.1,38.29,4.2T119,46.54q6.69,29.81-11.11,50.24-11,13-13.34,16.93A24.81,24.81,0,0,0,92.54,135.19ZM69.39,157.75a19.39,19.39,0,0,1,12.71-9,20.54,20.54,0,0,1,24.5,15.52,20.11,20.11,0,0,1-2.67,15.57A19.57,19.57,0,0,1,91.13,189a19.18,19.18,0,0,1-15.37-2.83,20.3,20.3,0,0,1-9-12.95A19.89,19.89,0,0,1,69.39,157.75Z"/><path class="cls-1" d="M92.42,135.07l-26.1,5.86q-5.65-17-1.15-30.59Q66.7,105,72.78,96.41a88.75,88.75,0,0,0,9.57-16.89,27.8,27.8,0,0,0,1.5-17.24q-1.71-7.61-7.41-11.13T62.25,49.54q-16.53,3.7-26.42,23.75l-22-32.06q16.59-21.76,46.15-27.5,22.38-4.11,38.29,4.2T118.9,46.42q6.69,29.81-11.11,50.24-11,13-13.34,16.93A24.81,24.81,0,0,0,92.42,135.07ZM69.27,157.63a19.39,19.39,0,0,1,12.71-9,20.54,20.54,0,0,1,24.5,15.52,20.11,20.11,0,0,1-2.67,15.57A19.57,19.57,0,0,1,91,188.84,19.18,19.18,0,0,1,75.64,186a20.3,20.3,0,0,1-9-12.95A19.89,19.89,0,0,1,69.27,157.63Z"/><path class="cls-1" d="M92.3,135,66.2,140.8q-5.66-17-1.15-30.58,1.53-5.37,7.61-13.93A89.3,89.3,0,0,0,82.23,79.4a27.8,27.8,0,0,0,1.5-17.24Q82,54.56,76.32,51T62.13,49.42Q45.6,53.13,35.71,73.17l-22-32.06q16.59-21.76,46.15-27.5Q82.19,9.5,98.1,17.81T118.78,46.3q6.69,29.81-11.11,50.24-11,13-13.34,16.93A24.81,24.81,0,0,0,92.3,135ZM69.15,157.51a19.39,19.39,0,0,1,12.71-9A20.54,20.54,0,0,1,106.36,164a20.12,20.12,0,0,1-2.67,15.57,19.57,19.57,0,0,1-12.8,9.15,19.22,19.22,0,0,1-15.37-2.83,20.3,20.3,0,0,1-9-12.95A19.89,19.89,0,0,1,69.15,157.51Z"/><path class="cls-1" d="M92.18,134.83l-26.1,5.85q-5.65-17-1.15-30.58,1.53-5.37,7.61-13.93a89.3,89.3,0,0,0,9.57-16.89A27.8,27.8,0,0,0,83.61,62q-1.71-7.6-7.41-11.13T62,49.3Q45.48,53,35.59,73.05L13.54,41q16.59-21.76,46.15-27.5Q82.07,9.38,98,17.69t20.68,28.49Q125.35,76,107.55,96.42q-11,13-13.34,16.93A24.81,24.81,0,0,0,92.18,134.83ZM69,157.39a19.39,19.39,0,0,1,12.71-9,20.54,20.54,0,0,1,24.5,15.52,20.12,20.12,0,0,1-2.67,15.57,19.57,19.57,0,0,1-12.8,9.15,19.22,19.22,0,0,1-15.37-2.83,20.3,20.3,0,0,1-9-13A19.89,19.89,0,0,1,69,157.39Z"/><path class="cls-1" d="M92.06,134.71,66,140.56q-5.65-17-1.16-30.58,1.55-5.37,7.62-13.93A89.3,89.3,0,0,0,82,79.16a27.8,27.8,0,0,0,1.5-17.24q-1.71-7.61-7.41-11.13T61.89,49.18q-16.53,3.7-26.42,23.75l-22-32.06Q30,19.11,59.57,13.37q22.38-4.11,38.29,4.2t20.68,28.49q6.69,29.81-11.11,50.24-11,13-13.34,16.93A24.81,24.81,0,0,0,92.06,134.71ZM68.91,157.27a19.39,19.39,0,0,1,12.71-9,20.54,20.54,0,0,1,24.5,15.52,20.12,20.12,0,0,1-2.67,15.57,19.57,19.57,0,0,1-12.8,9.15,19.22,19.22,0,0,1-15.37-2.83,20.3,20.3,0,0,1-9-13A19.89,19.89,0,0,1,68.91,157.27Z"/><path class="cls-1" d="M91.94,134.59l-26.1,5.85q-5.66-17-1.16-30.58,1.54-5.37,7.62-13.93A89.3,89.3,0,0,0,81.87,79a27.81,27.81,0,0,0,1.5-17.24Q81.66,54.19,76,50.67T61.77,49.06q-16.53,3.7-26.42,23.75l-22-32.06Q29.89,19,59.45,13.25q22.38-4.11,38.29,4.2t20.68,28.49q6.69,29.79-11.11,50.24-11,13-13.34,16.93A24.81,24.81,0,0,0,91.94,134.59ZM68.79,157.15a19.39,19.39,0,0,1,12.71-9A20.54,20.54,0,0,1,106,163.64a20.12,20.12,0,0,1-2.67,15.57,19.57,19.57,0,0,1-12.8,9.15,19.22,19.22,0,0,1-15.37-2.83,20.3,20.3,0,0,1-9-12.95A19.89,19.89,0,0,1,68.79,157.15Z"/><path class="cls-1" d="M91.82,134.47l-26.1,5.85q-5.65-17-1.16-30.58,1.55-5.37,7.62-13.93a89.3,89.3,0,0,0,9.57-16.89,27.81,27.81,0,0,0,1.5-17.24q-1.71-7.6-7.41-11.13T61.65,48.94q-16.53,3.7-26.42,23.75l-22-32.06q16.59-21.76,46.15-27.5Q81.71,9,97.62,17.33T118.3,45.82Q125,75.61,107.19,96.06q-11,13-13.34,16.93A24.81,24.81,0,0,0,91.82,134.47ZM68.67,157a19.39,19.39,0,0,1,12.71-9,20.56,20.56,0,0,1,24.5,15.52,20.12,20.12,0,0,1-2.67,15.57,19.57,19.57,0,0,1-12.8,9.15A19.22,19.22,0,0,1,75,185.41a20.3,20.3,0,0,1-9-12.95A19.89,19.89,0,0,1,68.67,157Z"/><path class="cls-1" d="M91.7,134.35,65.6,140.2q-5.65-17-1.16-30.58,1.55-5.37,7.62-13.93A89.3,89.3,0,0,0,81.63,78.8a27.81,27.81,0,0,0,1.5-17.24Q81.42,54,75.72,50.43T61.53,48.82Q45,52.53,35.11,72.57l-22-32.06Q29.65,18.75,59.21,13,81.59,8.9,97.5,17.21T118.18,45.7q6.69,29.79-11.11,50.24-11,13-13.34,16.93A24.81,24.81,0,0,0,91.7,134.35ZM68.55,156.91a19.39,19.39,0,0,1,12.71-9,20.56,20.56,0,0,1,24.5,15.52A20.12,20.12,0,0,1,103.09,179a19.57,19.57,0,0,1-12.8,9.15,19.22,19.22,0,0,1-15.37-2.83,20.3,20.3,0,0,1-9-12.95A19.89,19.89,0,0,1,68.55,156.91Z"/><path class="cls-1" d="M91.58,134.22l-26.1,5.86q-5.66-17-1.16-30.58,1.55-5.37,7.62-13.93a89.3,89.3,0,0,0,9.57-16.89A27.81,27.81,0,0,0,83,61.44Q81.3,53.83,75.6,50.31T61.41,48.7Q44.88,52.41,35,72.45L12.94,40.39q16.59-21.76,46.15-27.5,22.38-4.11,38.29,4.2t20.68,28.49Q124.75,75.37,107,95.82q-11,13-13.34,16.93A24.79,24.79,0,0,0,91.58,134.22ZM68.43,156.79a19.39,19.39,0,0,1,12.71-9,20.56,20.56,0,0,1,24.5,15.52A20.12,20.12,0,0,1,103,178.85,19.57,19.57,0,0,1,90.17,188a19.22,19.22,0,0,1-15.37-2.83,20.3,20.3,0,0,1-9-12.95A19.89,19.89,0,0,1,68.43,156.79Z"/><path class="cls-1" d="M91.46,134.1,65.36,140q-5.65-17-1.16-30.58,1.55-5.37,7.62-13.93a89.3,89.3,0,0,0,9.57-16.89,27.81,27.81,0,0,0,1.5-17.24q-1.71-7.6-7.41-11.13T61.29,48.58q-16.53,3.7-26.42,23.75l-22-32.06Q29.41,18.51,59,12.77,81.35,8.66,97.26,17t20.68,28.49q6.69,29.79-11.11,50.24-11,13-13.34,16.93A24.79,24.79,0,0,0,91.46,134.1ZM68.31,156.67a19.39,19.39,0,0,1,12.71-9,20.56,20.56,0,0,1,24.5,15.52,20.12,20.12,0,0,1-2.67,15.57,19.57,19.57,0,0,1-12.8,9.15,19.22,19.22,0,0,1-15.37-2.83,20.3,20.3,0,0,1-9-13A19.89,19.89,0,0,1,68.31,156.67Z"/><path class="cls-1" d="M91.34,134l-26.1,5.86q-5.65-17-1.16-30.58,1.55-5.37,7.61-13.93a88.82,88.82,0,0,0,9.58-16.89,27.81,27.81,0,0,0,1.5-17.24q-1.71-7.61-7.41-11.13T61.17,48.46q-16.53,3.7-26.42,23.75l-22-32.06q16.59-21.76,46.15-27.5,22.38-4.11,38.29,4.2t20.68,28.49q6.69,29.79-11.11,50.24-11,13-13.34,16.93A24.79,24.79,0,0,0,91.34,134ZM68.19,156.55a19.39,19.39,0,0,1,12.71-9A20.56,20.56,0,0,1,105.4,163a20.12,20.12,0,0,1-2.67,15.57,19.57,19.57,0,0,1-12.8,9.15,19.22,19.22,0,0,1-15.37-2.83,20.3,20.3,0,0,1-9-13A19.89,19.89,0,0,1,68.19,156.55Z"/><path class="cls-1" d="M91.22,133.86l-26.1,5.86q-5.66-17-1.16-30.58,1.54-5.37,7.61-13.93a89.37,89.37,0,0,0,9.58-16.89,27.81,27.81,0,0,0,1.5-17.24Q80.94,53.47,75.24,50T61.05,48.34Q44.52,52,34.63,72.09L12.58,40q16.59-21.76,46.15-27.5Q81.11,8.42,97,16.73T117.7,45.22Q124.39,75,106.59,95.46q-11,13-13.34,16.93A24.79,24.79,0,0,0,91.22,133.86ZM68.07,156.42a19.41,19.41,0,0,1,12.71-9,20.56,20.56,0,0,1,24.5,15.52,20.12,20.12,0,0,1-2.67,15.57,19.61,19.61,0,0,1-12.8,9.15,19.22,19.22,0,0,1-15.37-2.83,20.3,20.3,0,0,1-9-12.95A19.92,19.92,0,0,1,68.07,156.42Z"/><path class="cls-1" d="M91.1,133.74,65,139.6q-5.66-17-1.16-30.58,1.55-5.37,7.61-13.93A89.37,89.37,0,0,0,81,78.2,27.81,27.81,0,0,0,82.53,61q-1.71-7.6-7.41-11.13T60.93,48.22Q44.4,51.93,34.51,72l-22-32.06q16.59-21.78,46.15-27.5Q81,8.3,96.9,16.61T117.58,45.1q6.69,29.79-11.11,50.24-11,13-13.34,16.93A24.79,24.79,0,0,0,91.1,133.74ZM68,156.3a19.41,19.41,0,0,1,12.71-9,20.56,20.56,0,0,1,24.5,15.52,20.12,20.12,0,0,1-2.67,15.57,19.61,19.61,0,0,1-12.8,9.15,19.22,19.22,0,0,1-15.37-2.83,20.3,20.3,0,0,1-9-12.95A19.92,19.92,0,0,1,68,156.3Z"/><path class="cls-1" d="M91,133.62l-26.1,5.86q-5.65-17-1.16-30.58,1.55-5.37,7.61-13.93a89.37,89.37,0,0,0,9.58-16.89,27.81,27.81,0,0,0,1.5-17.24Q80.7,53.24,75,49.71T60.81,48.1q-16.53,3.7-26.42,23.75l-22-32.06Q28.93,18,58.49,12.29q22.38-4.11,38.29,4.2T117.46,45q6.69,29.79-11.11,50.24-11,13-13.34,16.93A24.79,24.79,0,0,0,91,133.62ZM67.83,156.18a19.41,19.41,0,0,1,12.71-9A20.56,20.56,0,0,1,105,162.68a20.12,20.12,0,0,1-2.67,15.57,19.61,19.61,0,0,1-12.8,9.15,19.21,19.21,0,0,1-15.37-2.83,20.26,20.26,0,0,1-9-12.95A19.92,19.92,0,0,1,67.83,156.18Z"/><path class="cls-1" d="M90.86,133.5l-26.1,5.86q-5.66-17-1.16-30.58,1.54-5.37,7.61-13.93A89.37,89.37,0,0,0,80.79,78a27.81,27.81,0,0,0,1.5-17.24q-1.71-7.61-7.41-11.13T60.69,48Q44.16,51.69,34.27,71.73L12.22,39.67q16.59-21.78,46.15-27.5,22.38-4.11,38.29,4.2t20.68,28.49Q124,74.65,106.23,95.1q-11,13-13.34,16.93A24.79,24.79,0,0,0,90.86,133.5ZM67.71,156.06a19.41,19.41,0,0,1,12.71-9,20.56,20.56,0,0,1,24.5,15.52,20.12,20.12,0,0,1-2.67,15.57,19.61,19.61,0,0,1-12.8,9.15,19.21,19.21,0,0,1-15.37-2.83,20.26,20.26,0,0,1-9-12.95A19.92,19.92,0,0,1,67.71,156.06Z"/><path class="cls-1" d="M90.74,133.38l-26.1,5.86q-5.66-17-1.16-30.58,1.55-5.37,7.61-13.93a89.37,89.37,0,0,0,9.58-16.89,27.81,27.81,0,0,0,1.5-17.24Q80.46,53,74.76,49.47T60.57,47.86Q44,51.57,34.15,71.61l-22-32.06q16.59-21.78,46.15-27.5,22.38-4.11,38.29,4.2t20.68,28.49Q123.91,74.53,106.11,95q-11,13-13.34,16.93A24.79,24.79,0,0,0,90.74,133.38ZM67.59,155.94a19.41,19.41,0,0,1,12.71-9,20.56,20.56,0,0,1,24.5,15.52A20.12,20.12,0,0,1,102.13,178a19.61,19.61,0,0,1-12.8,9.15A19.21,19.21,0,0,1,74,184.33a20.29,20.29,0,0,1-9-13A19.92,19.92,0,0,1,67.59,155.94Z"/><path class="cls-1" d="M90.62,133.26l-26.1,5.86q-5.65-17-1.16-30.58,1.55-5.37,7.61-13.93a89.37,89.37,0,0,0,9.58-16.89,27.81,27.81,0,0,0,1.5-17.24q-1.71-7.6-7.41-11.13T60.45,47.74Q43.92,51.45,34,71.49L12,39.43q16.59-21.78,46.15-27.5,22.38-4.11,38.29,4.2T117.1,44.62Q123.79,74.41,106,94.86q-11,13-13.34,16.93A24.78,24.78,0,0,0,90.62,133.26ZM67.47,155.82a19.41,19.41,0,0,1,12.71-9,20.56,20.56,0,0,1,24.5,15.52A20.12,20.12,0,0,1,102,177.89,19.61,19.61,0,0,1,89.21,187a19.21,19.21,0,0,1-15.37-2.83,20.29,20.29,0,0,1-9-13A19.92,19.92,0,0,1,67.47,155.82Z"/><path class="cls-1" d="M90.5,133.14,64.4,139q-5.66-17-1.16-30.58,1.54-5.37,7.61-13.93A89.37,89.37,0,0,0,80.43,77.6a27.81,27.81,0,0,0,1.5-17.24q-1.71-7.61-7.41-11.13T60.33,47.62Q43.8,51.33,33.91,71.37l-22-32.06Q28.45,17.53,58,11.81,80.39,7.7,96.3,16T117,44.5q6.69,29.79-11.11,50.24-11,13-13.34,16.93A24.78,24.78,0,0,0,90.5,133.14ZM67.35,155.7a19.41,19.41,0,0,1,12.71-9,20.56,20.56,0,0,1,24.5,15.52,20.12,20.12,0,0,1-2.67,15.57,19.61,19.61,0,0,1-12.8,9.15,19.21,19.21,0,0,1-15.37-2.83,20.29,20.29,0,0,1-9-13A19.92,19.92,0,0,1,67.35,155.7Z"/><path class="cls-1" d="M90.38,133l-26.1,5.86q-5.66-17-1.16-30.58,1.55-5.37,7.61-13.93a89.37,89.37,0,0,0,9.58-16.89,27.81,27.81,0,0,0,1.5-17.24q-1.71-7.6-7.41-11.13T60.21,47.5q-16.53,3.7-26.42,23.75l-22-32.06q16.59-21.78,46.15-27.5,22.38-4.11,38.29,4.2t20.68,28.49q6.69,29.79-11.11,50.24-11,13-13.34,16.93A24.78,24.78,0,0,0,90.38,133ZM67.23,155.58a19.39,19.39,0,0,1,12.71-9,20.56,20.56,0,0,1,24.5,15.52,20.12,20.12,0,0,1-2.67,15.57A19.61,19.61,0,0,1,89,186.8,19.21,19.21,0,0,1,73.6,184a20.29,20.29,0,0,1-9-12.95A19.92,19.92,0,0,1,67.23,155.58Z"/><path class="cls-1" d="M90.26,132.9l-26.1,5.86q-5.65-17-1.16-30.58,1.55-5.37,7.61-13.93a89.37,89.37,0,0,0,9.58-16.89,27.81,27.81,0,0,0,1.5-17.24Q80,52.52,74.28,49T60.09,47.38q-16.53,3.7-26.42,23.75L11.62,39.07q16.59-21.78,46.15-27.5,22.38-4.11,38.29,4.2t20.68,28.49q6.69,29.79-11.11,50.24-11,13-13.34,16.93A24.78,24.78,0,0,0,90.26,132.9ZM67.11,155.46a19.39,19.39,0,0,1,12.71-9A20.56,20.56,0,0,1,104.32,162a20.12,20.12,0,0,1-2.67,15.57,19.61,19.61,0,0,1-12.8,9.15,19.21,19.21,0,0,1-15.37-2.83,20.29,20.29,0,0,1-9-12.95A19.92,19.92,0,0,1,67.11,155.46Z"/><path class="cls-1" d="M90.14,132.78,64,138.64q-5.66-17-1.16-30.58,1.54-5.37,7.61-13.93a89.37,89.37,0,0,0,9.58-16.89A27.81,27.81,0,0,0,81.57,60q-1.71-7.61-7.41-11.13T60,47.26Q43.44,51,33.55,71L11.5,39q16.59-21.78,46.15-27.5Q80,7.34,95.94,15.65t20.68,28.48q6.69,29.81-11.11,50.25-11,13-13.34,16.93A24.78,24.78,0,0,0,90.14,132.78ZM67,155.34a19.39,19.39,0,0,1,12.71-9,20.56,20.56,0,0,1,24.5,15.52,20.12,20.12,0,0,1-2.67,15.57,19.63,19.63,0,0,1-12.8,9.15,19.21,19.21,0,0,1-15.37-2.83,20.29,20.29,0,0,1-9-12.95A19.92,19.92,0,0,1,67,155.34Z"/><path class="cls-1" d="M90,132.66l-26.1,5.86q-5.66-17-1.16-30.58,1.55-5.37,7.61-13.93A89.37,89.37,0,0,0,80,77.12a27.81,27.81,0,0,0,1.5-17.24Q79.74,52.28,74,48.75T59.85,47.14q-16.53,3.7-26.42,23.75l-22-32.06Q28,17,57.53,11.33q22.38-4.11,38.29,4.2T116.49,44q6.7,29.81-11.1,50.25-11,13-13.34,16.93A24.78,24.78,0,0,0,90,132.66ZM66.87,155.22a19.39,19.39,0,0,1,12.71-9,20.56,20.56,0,0,1,24.5,15.52,20.12,20.12,0,0,1-2.67,15.57,19.63,19.63,0,0,1-12.8,9.15,19.21,19.21,0,0,1-15.37-2.83,20.29,20.29,0,0,1-9-13A19.92,19.92,0,0,1,66.87,155.22Z"/><path class="cls-1" d="M89.9,132.54,63.8,138.4q-5.65-17-1.16-30.58,1.55-5.37,7.61-13.93A89.37,89.37,0,0,0,79.83,77a27.81,27.81,0,0,0,1.5-17.24q-1.71-7.6-7.41-11.13T59.73,47Q43.2,50.73,33.31,70.77L11.26,38.71q16.59-21.78,46.15-27.5Q79.79,7.1,95.7,15.41t20.67,28.48q6.7,29.8-11.1,50.25-11,13-13.34,16.93A24.78,24.78,0,0,0,89.9,132.54ZM66.75,155.1a19.39,19.39,0,0,1,12.71-9A20.56,20.56,0,0,1,104,161.6a20.12,20.12,0,0,1-2.67,15.57,19.63,19.63,0,0,1-12.8,9.15,19.21,19.21,0,0,1-15.37-2.83,20.29,20.29,0,0,1-9-13A19.92,19.92,0,0,1,66.75,155.1Z"/><path class="cls-1" d="M89.78,132.42l-26.1,5.86q-5.66-17-1.16-30.58,1.54-5.37,7.61-13.93a89.37,89.37,0,0,0,9.58-16.89,27.81,27.81,0,0,0,1.5-17.24Q79.5,52,73.79,48.51T59.61,46.89Q43.08,50.61,33.19,70.65l-22-32.06q16.59-21.78,46.14-27.5Q79.67,7,95.58,15.29t20.67,28.48Q123,73.58,105.15,94q-11,13-13.34,16.93A24.78,24.78,0,0,0,89.78,132.42ZM66.63,155a19.39,19.39,0,0,1,12.71-9,20.56,20.56,0,0,1,24.5,15.52A20.09,20.09,0,0,1,101.17,177a19.61,19.61,0,0,1-12.8,9.16A19.21,19.21,0,0,1,73,183.37a20.28,20.28,0,0,1-9-13A19.91,19.91,0,0,1,66.63,155Z"/><path class="cls-1" d="M89.66,132.3l-26.1,5.86q-5.66-17-1.16-30.58,1.55-5.37,7.61-13.93a89.37,89.37,0,0,0,9.58-16.89,27.81,27.81,0,0,0,1.5-17.24q-1.71-7.62-7.42-11.13T59.49,46.77Q43,50.49,33.07,70.53L11,38.47Q27.61,16.69,57.16,11q22.38-4.11,38.3,4.2t20.67,28.48q6.7,29.81-11.1,50.25-11,13-13.34,16.93A24.78,24.78,0,0,0,89.66,132.3ZM66.51,154.86a19.39,19.39,0,0,1,12.71-9,20.56,20.56,0,0,1,24.5,15.52,20.09,20.09,0,0,1-2.67,15.56,19.61,19.61,0,0,1-12.8,9.16,19.21,19.21,0,0,1-15.37-2.83,20.28,20.28,0,0,1-9-13A19.91,19.91,0,0,1,66.51,154.86Z"/><path class="cls-1" d="M89.54,132.18,63.44,138q-5.65-17-1.16-30.58,1.55-5.37,7.61-13.93a89.37,89.37,0,0,0,9.58-16.89A27.81,27.81,0,0,0,81,59.4q-1.71-7.62-7.42-11.13T59.37,46.65Q42.84,50.37,33,70.41L10.9,38.34Q27.49,16.57,57,10.85q22.38-4.11,38.3,4.2T116,43.53q6.7,29.8-11.11,50.25-11,13-13.33,16.93A24.78,24.78,0,0,0,89.54,132.18ZM66.39,154.74a19.39,19.39,0,0,1,12.71-9,20.56,20.56,0,0,1,24.5,15.52,20.09,20.09,0,0,1-2.67,15.56A19.61,19.61,0,0,1,88.13,186a19.21,19.21,0,0,1-15.37-2.83,20.28,20.28,0,0,1-9-13A19.91,19.91,0,0,1,66.39,154.74Z"/><path class="cls-1" d="M89.42,132.06l-26.1,5.86q-5.66-17-1.16-30.58,1.55-5.37,7.61-13.93a89.37,89.37,0,0,0,9.58-16.89,27.81,27.81,0,0,0,1.5-17.24q-1.71-7.62-7.42-11.13T59.25,46.53Q42.72,50.25,32.83,70.29l-22-32.07Q27.37,16.46,56.92,10.73q22.38-4.11,38.3,4.2t20.67,28.48q6.69,29.81-11.11,50.25-11,13-13.33,16.93A24.78,24.78,0,0,0,89.42,132.06ZM66.27,154.62a19.39,19.39,0,0,1,12.71-9,20.56,20.56,0,0,1,24.5,15.52,20.09,20.09,0,0,1-2.67,15.56A19.61,19.61,0,0,1,88,185.84,19.21,19.21,0,0,1,72.64,183a20.28,20.28,0,0,1-9-13A19.91,19.91,0,0,1,66.27,154.62Z"/><path class="cls-1" d="M89.3,131.94,63.2,137.8q-5.66-17-1.16-30.58,1.55-5.37,7.61-13.93A89.37,89.37,0,0,0,79.23,76.4a27.81,27.81,0,0,0,1.5-17.24Q79,51.54,73.31,48T59.13,46.41Q42.6,50.13,32.71,70.17l-22-32.07Q27.24,16.34,56.8,10.61q22.38-4.11,38.3,4.2t20.67,28.48q6.69,29.81-11.11,50.25-11,13-13.33,16.93A24.78,24.78,0,0,0,89.3,131.94ZM66.15,154.5a19.39,19.39,0,0,1,12.71-9A20.56,20.56,0,0,1,103.36,161a20.13,20.13,0,0,1-2.67,15.56,19.61,19.61,0,0,1-12.8,9.16,19.21,19.21,0,0,1-15.37-2.83,20.28,20.28,0,0,1-9-13A19.91,19.91,0,0,1,66.15,154.5Z"/><path class="cls-1" d="M89.18,131.82l-26.1,5.86q-5.65-17-1.16-30.58,1.55-5.37,7.61-13.93a89.37,89.37,0,0,0,9.58-16.89A27.81,27.81,0,0,0,80.61,59q-1.71-7.62-7.42-11.13T59,46.29Q42.48,50,32.59,70.05L10.54,38Q27.12,16.22,56.68,10.49,79.06,6.38,95,14.69t20.67,28.48q6.69,29.8-11.11,50.25-11,13-13.33,16.93A24.78,24.78,0,0,0,89.18,131.82ZM66,154.38a19.39,19.39,0,0,1,12.71-9,20.56,20.56,0,0,1,24.5,15.52,20.09,20.09,0,0,1-2.68,15.56,19.57,19.57,0,0,1-12.79,9.16,19.21,19.21,0,0,1-15.37-2.83,20.28,20.28,0,0,1-9-13A19.91,19.91,0,0,1,66,154.38Z"/><path class="cls-1" d="M89.06,131.7,63,137.56q-5.66-17-1.16-30.58,1.55-5.37,7.61-13.93A89.37,89.37,0,0,0,79,76.16a27.81,27.81,0,0,0,1.5-17.24q-1.71-7.62-7.42-11.13T58.89,46.17Q42.36,49.89,32.47,69.93l-22-32.07Q27,16.1,56.56,10.37q22.38-4.11,38.3,4.2t20.67,28.48q6.69,29.81-11.11,50.25-11,13-13.33,16.93A24.78,24.78,0,0,0,89.06,131.7ZM65.91,154.26a19.39,19.39,0,0,1,12.71-9,20.56,20.56,0,0,1,24.5,15.52,20.09,20.09,0,0,1-2.68,15.56,19.57,19.57,0,0,1-12.79,9.16,19.21,19.21,0,0,1-15.37-2.83,20.28,20.28,0,0,1-9-13A19.91,19.91,0,0,1,65.91,154.26Z"/><path class="cls-1" d="M88.94,131.58l-26.1,5.86q-5.66-17-1.16-30.58,1.55-5.37,7.61-13.93A89.37,89.37,0,0,0,78.87,76a27.81,27.81,0,0,0,1.5-17.24Q78.66,51.18,73,47.67T58.77,46.05Q42.24,49.77,32.35,69.81l-22-32.07Q26.88,16,56.44,10.25q22.38-4.11,38.3,4.2t20.67,28.48q6.69,29.81-11.11,50.25-11,13-13.33,16.93A24.78,24.78,0,0,0,88.94,131.58ZM65.79,154.14a19.39,19.39,0,0,1,12.71-9A20.56,20.56,0,0,1,103,160.64a20.09,20.09,0,0,1-2.68,15.56,19.57,19.57,0,0,1-12.79,9.16,19.21,19.21,0,0,1-15.37-2.83,20.28,20.28,0,0,1-9-13A19.9,19.9,0,0,1,65.79,154.14Z"/><path class="cls-1" d="M88.82,131.46l-26.1,5.86q-5.65-17-1.16-30.58,1.55-5.37,7.61-13.93a89.37,89.37,0,0,0,9.58-16.89,27.81,27.81,0,0,0,1.5-17.24q-1.71-7.62-7.42-11.13T58.65,45.93Q42.12,49.65,32.23,69.69l-22-32.07Q26.76,15.86,56.32,10.13,78.7,6,94.62,14.33t20.67,28.48q6.69,29.8-11.11,50.25-11,13-13.33,16.93A24.78,24.78,0,0,0,88.82,131.46ZM65.67,154a19.39,19.39,0,0,1,12.71-9,20.56,20.56,0,0,1,24.5,15.52,20.09,20.09,0,0,1-2.68,15.56,19.57,19.57,0,0,1-12.79,9.16A19.21,19.21,0,0,1,72,182.41a20.28,20.28,0,0,1-9-13A19.9,19.9,0,0,1,65.67,154Z"/><path class="cls-1" d="M88.7,131.34,62.6,137.2q-5.66-17-1.16-30.58,1.55-5.37,7.61-13.93A89.37,89.37,0,0,0,78.63,75.8a27.81,27.81,0,0,0,1.5-17.24q-1.71-7.62-7.42-11.13T58.53,45.81Q42,49.53,32.11,69.57l-22-32.07Q26.64,15.74,56.2,10q22.38-4.11,38.3,4.2t20.67,28.48q6.69,29.81-11.11,50.25-11,13-13.33,16.93A24.78,24.78,0,0,0,88.7,131.34ZM65.55,153.9a19.39,19.39,0,0,1,12.71-9,20.56,20.56,0,0,1,24.5,15.52A20.09,20.09,0,0,1,100.08,176a19.57,19.57,0,0,1-12.79,9.16,19.21,19.21,0,0,1-15.37-2.83,20.28,20.28,0,0,1-9-13A19.9,19.9,0,0,1,65.55,153.9Z"/><path class="cls-1" d="M88.58,131.22l-26.1,5.86q-5.65-17-1.16-30.58,1.55-5.37,7.61-13.93a89.37,89.37,0,0,0,9.58-16.89A27.74,27.74,0,0,0,80,58.44q-1.69-7.62-7.41-11.13T58.41,45.69Q41.88,49.41,32,69.45l-22-32.07Q26.52,15.62,56.08,9.89q22.38-4.11,38.3,4.2t20.67,28.48q6.69,29.81-11.11,50.25-11,13-13.33,16.93A24.78,24.78,0,0,0,88.58,131.22ZM65.42,153.78a19.4,19.4,0,0,1,12.72-9,20.56,20.56,0,0,1,24.5,15.52A20.09,20.09,0,0,1,100,175.84,19.57,19.57,0,0,1,87.17,185a19.21,19.21,0,0,1-15.37-2.83,20.28,20.28,0,0,1-9-13A19.94,19.94,0,0,1,65.42,153.78Z"/><path class="cls-1" d="M88.46,131.1,62.36,137q-5.65-17-1.16-30.58,1.54-5.37,7.61-13.93a89.37,89.37,0,0,0,9.58-16.89,27.74,27.74,0,0,0,1.49-17.24q-1.69-7.62-7.41-11.13T58.29,45.57Q41.76,49.29,31.86,69.33l-22-32.07Q26.4,15.5,56,9.77,78.34,5.66,94.26,14t20.67,28.48q6.69,29.8-11.11,50.25-11,13-13.33,16.93A24.78,24.78,0,0,0,88.46,131.1ZM65.3,153.66a19.4,19.4,0,0,1,12.72-9,20.56,20.56,0,0,1,24.5,15.52,20.09,20.09,0,0,1-2.68,15.56,19.57,19.57,0,0,1-12.79,9.16,19.21,19.21,0,0,1-15.37-2.83,20.28,20.28,0,0,1-9-13A19.94,19.94,0,0,1,65.3,153.66Z"/><path class="cls-1" d="M88.34,131l-26.1,5.86q-5.66-17-1.16-30.58,1.53-5.37,7.61-13.94a89,89,0,0,0,9.58-16.88A27.74,27.74,0,0,0,79.76,58.2q-1.7-7.62-7.41-11.13T58.17,45.45Q41.64,49.17,31.74,69.21L9.7,37.14Q26.28,15.38,55.84,9.65q22.38-4.11,38.3,4.2t20.67,28.48q6.69,29.81-11.11,50.25-11,13-13.33,16.93A24.78,24.78,0,0,0,88.34,131ZM65.18,153.54a19.4,19.4,0,0,1,12.72-9A20.56,20.56,0,0,1,102.4,160a20.09,20.09,0,0,1-2.68,15.56,19.57,19.57,0,0,1-12.79,9.16,19.21,19.21,0,0,1-15.37-2.83,20.28,20.28,0,0,1-9-13A19.94,19.94,0,0,1,65.18,153.54Z"/><path class="cls-1" d="M88.22,130.86l-26.11,5.86q-5.64-17-1.15-30.58,1.53-5.37,7.61-13.94a89,89,0,0,0,9.58-16.88,27.74,27.74,0,0,0,1.49-17.24Q77.95,50.46,72.23,47T58.05,45.33Q41.52,49.05,31.62,69.09L9.58,37Q26.16,15.26,55.72,9.53,78.1,5.42,94,13.73t20.67,28.48Q121.38,72,103.58,92.46q-11,13-13.33,16.93A24.78,24.78,0,0,0,88.22,130.86ZM65.06,153.42a19.4,19.4,0,0,1,12.72-9,20.56,20.56,0,0,1,24.5,15.52,20.09,20.09,0,0,1-2.68,15.56,19.57,19.57,0,0,1-12.79,9.16,19.21,19.21,0,0,1-15.37-2.83,20.28,20.28,0,0,1-9-13A19.94,19.94,0,0,1,65.06,153.42Z"/><path class="cls-1" d="M88.09,130.74,62,136.6q-5.64-17-1.15-30.58,1.53-5.37,7.61-13.94A89,89,0,0,0,78,75.2,27.74,27.74,0,0,0,79.52,58q-1.69-7.62-7.41-11.13T57.93,45.21Q41.4,48.93,31.5,69L9.46,36.9Q26,15.14,55.6,9.41,78,5.3,93.9,13.61t20.67,28.48q6.69,29.8-11.11,50.25-11,13-13.33,16.93A24.82,24.82,0,0,0,88.09,130.74ZM64.94,153.3a19.4,19.4,0,0,1,12.72-9,20.56,20.56,0,0,1,24.5,15.52,20.09,20.09,0,0,1-2.68,15.56,19.57,19.57,0,0,1-12.79,9.16,19.21,19.21,0,0,1-15.37-2.83,20.33,20.33,0,0,1-9-13A20,20,0,0,1,64.94,153.3Z"/><path class="cls-1" d="M88,130.62l-26.1,5.86q-5.64-17-1.15-30.58,1.53-5.37,7.61-13.94a89,89,0,0,0,9.58-16.88A27.74,27.74,0,0,0,79.4,57.84Q77.69,50.22,72,46.71T57.81,45.09Q41.28,48.81,31.38,68.85l-22-32.07Q25.92,15,55.48,9.29q22.38-4.11,38.3,4.2T114.45,42q6.69,29.81-11.11,50.25-11,13-13.33,16.93A24.82,24.82,0,0,0,88,130.62ZM64.82,153.18a19.4,19.4,0,0,1,12.72-9A20.56,20.56,0,0,1,102,159.68a20.09,20.09,0,0,1-2.68,15.56,19.57,19.57,0,0,1-12.79,9.16,19.25,19.25,0,0,1-15.37-2.83,20.33,20.33,0,0,1-9-13A20,20,0,0,1,64.82,153.18Z"/><path class="cls-1" d="M87.85,130.5l-26.1,5.86q-5.64-17-1.15-30.58,1.53-5.37,7.61-13.94A89,89,0,0,0,77.79,75a27.74,27.74,0,0,0,1.49-17.24q-1.71-7.62-7.41-11.13T57.69,45Q41.16,48.69,31.26,68.72l-22-32.06Q25.8,14.9,55.36,9.17q22.38-4.11,38.3,4.2t20.67,28.48Q121,71.66,103.22,92.1q-11,13-13.33,16.93A24.82,24.82,0,0,0,87.85,130.5ZM64.7,153.06a19.4,19.4,0,0,1,12.72-9,20.56,20.56,0,0,1,24.5,15.52,20.14,20.14,0,0,1-2.68,15.56,19.57,19.57,0,0,1-12.79,9.16,19.25,19.25,0,0,1-15.37-2.83,20.33,20.33,0,0,1-9-13A20,20,0,0,1,64.7,153.06Z"/><path class="cls-1" d="M87.73,130.38l-26.1,5.86q-5.64-17-1.15-30.58,1.53-5.37,7.61-13.94a89,89,0,0,0,9.58-16.88A27.74,27.74,0,0,0,79.16,57.6Q77.45,50,71.75,46.47T57.57,44.85Q41,48.57,31.14,68.6L9.1,36.54Q25.67,14.78,55.24,9.05q22.38-4.11,38.3,4.2t20.67,28.48Q120.9,71.54,103.1,92q-11,13-13.33,16.93A24.82,24.82,0,0,0,87.73,130.38ZM64.58,152.94a19.4,19.4,0,0,1,12.71-9,20.56,20.56,0,0,1,24.51,15.52A20.14,20.14,0,0,1,99.12,175a19.57,19.57,0,0,1-12.79,9.16A19.25,19.25,0,0,1,71,181.33a20.33,20.33,0,0,1-9-13A20,20,0,0,1,64.58,152.94Z"/><path class="cls-1" d="M87.61,130.26l-26.1,5.86q-5.64-17-1.15-30.58Q61.89,100.17,68,91.6a89,89,0,0,0,9.58-16.88A27.74,27.74,0,0,0,79,57.48q-1.71-7.62-7.41-11.13T57.45,44.73Q40.92,48.45,31,68.48L9,36.42Q25.56,14.66,55.12,8.93q22.38-4.11,38.3,4.2t20.67,28.48q6.69,29.8-11.11,50.25-11,13-13.33,16.93A24.82,24.82,0,0,0,87.61,130.26ZM64.46,152.82a19.4,19.4,0,0,1,12.71-9,20.56,20.56,0,0,1,24.51,15.52A20.14,20.14,0,0,1,99,174.88,19.57,19.57,0,0,1,86.21,184a19.25,19.25,0,0,1-15.37-2.83,20.36,20.36,0,0,1-9-13A20,20,0,0,1,64.46,152.82Z"/><path class="cls-1" d="M87.49,130.14,61.39,136q-5.64-17-1.15-30.58,1.53-5.37,7.61-13.94A89,89,0,0,0,77.43,74.6a27.74,27.74,0,0,0,1.49-17.24q-1.71-7.62-7.41-11.13T57.33,44.61Q40.8,48.33,30.9,68.36L8.86,36.3Q25.44,14.54,55,8.81,77.38,4.7,93.3,13T114,41.49q6.69,29.81-11.11,50.25-11,13-13.33,16.93A24.82,24.82,0,0,0,87.49,130.14ZM64.34,152.7a19.38,19.38,0,0,1,12.71-9,20.56,20.56,0,0,1,24.51,15.52,20.14,20.14,0,0,1-2.68,15.56,19.57,19.57,0,0,1-12.79,9.16,19.22,19.22,0,0,1-15.37-2.84,20.31,20.31,0,0,1-9-13A20,20,0,0,1,64.34,152.7Z"/><path class="cls-1" d="M87.37,130l-26.1,5.86q-5.64-17-1.15-30.58,1.53-5.37,7.61-13.94a89,89,0,0,0,9.58-16.88A27.74,27.74,0,0,0,78.8,57.24q-1.71-7.62-7.41-11.13T57.21,44.49Q40.68,48.21,30.78,68.24l-22-32.06Q25.32,14.42,54.88,8.69q22.38-4.11,38.3,4.2t20.67,28.48q6.69,29.81-11.11,50.24-11,13-13.33,16.93A24.84,24.84,0,0,0,87.37,130ZM64.22,152.58a19.38,19.38,0,0,1,12.71-9,20.56,20.56,0,0,1,24.51,15.52,20.14,20.14,0,0,1-2.68,15.56A19.57,19.57,0,0,1,86,183.8,19.22,19.22,0,0,1,70.6,181a20.31,20.31,0,0,1-9-13A20,20,0,0,1,64.22,152.58Z"/><path class="cls-1" d="M87.25,129.9l-26.1,5.86q-5.64-17-1.15-30.58,1.53-5.37,7.61-13.94a89,89,0,0,0,9.58-16.88,27.74,27.74,0,0,0,1.49-17.24Q77,49.5,71.27,46T57.09,44.37Q40.56,48.09,30.66,68.12l-22-32.06Q25.2,14.3,54.76,8.57q22.38-4.11,38.3,4.2t20.67,28.48q6.69,29.8-11.11,50.24-11,13-13.33,16.93A24.84,24.84,0,0,0,87.25,129.9ZM64.1,152.46a19.38,19.38,0,0,1,12.71-9A20.56,20.56,0,0,1,101.32,159a20.14,20.14,0,0,1-2.68,15.56,19.57,19.57,0,0,1-12.79,9.16,19.22,19.22,0,0,1-15.37-2.84,20.31,20.31,0,0,1-9-13A20,20,0,0,1,64.1,152.46Z"/><path class="cls-1" d="M87.13,129.78,61,135.64q-5.64-17-1.15-30.58,1.53-5.37,7.61-13.94a88.38,88.38,0,0,0,9.57-16.88A27.67,27.67,0,0,0,78.56,57q-1.71-7.62-7.41-11.13T57,44.25Q40.44,48,30.54,68L8.5,35.94Q25.08,14.18,54.64,8.45,77,4.34,92.94,12.64t20.67,28.49q6.69,29.81-11.11,50.24-11,13-13.33,16.93A24.84,24.84,0,0,0,87.13,129.78ZM64,152.34a19.38,19.38,0,0,1,12.71-9,20.56,20.56,0,0,1,24.51,15.52,20.14,20.14,0,0,1-2.68,15.56,19.57,19.57,0,0,1-12.79,9.16,19.22,19.22,0,0,1-15.37-2.84,20.31,20.31,0,0,1-9-12.95A20,20,0,0,1,64,152.34Z"/><path class="cls-1" d="M87,129.66l-26.1,5.86q-5.64-17-1.15-30.58Q61.29,99.57,67.37,91a88.38,88.38,0,0,0,9.57-16.88,27.74,27.74,0,0,0,1.5-17.24Q76.73,49.26,71,45.75T56.85,44.13Q40.32,47.85,30.42,67.88l-22-32.06Q25,14.06,54.52,8.33q22.38-4.11,38.3,4.19T113.49,41q6.69,29.81-11.11,50.24-11,13-13.33,16.93A24.84,24.84,0,0,0,87,129.66ZM63.86,152.22a19.38,19.38,0,0,1,12.71-9,20.56,20.56,0,0,1,24.51,15.52,20.14,20.14,0,0,1-2.68,15.56,19.57,19.57,0,0,1-12.79,9.16,19.24,19.24,0,0,1-15.38-2.84,20.34,20.34,0,0,1-9-12.95A20,20,0,0,1,63.86,152.22Z"/><path class="cls-1" d="M86.89,129.54l-26.1,5.86q-5.64-17-1.15-30.59,1.53-5.36,7.61-13.93A88.38,88.38,0,0,0,76.82,74a27.74,27.74,0,0,0,1.5-17.24q-1.71-7.62-7.41-11.13T56.73,44Q40.2,47.73,30.3,67.76L8.26,35.7Q24.84,13.94,54.4,8.21,76.78,4.1,92.7,12.4t20.67,28.49q6.69,29.8-11.11,50.24-11,13-13.33,16.93A24.84,24.84,0,0,0,86.89,129.54ZM63.74,152.1a19.38,19.38,0,0,1,12.71-9A20.56,20.56,0,0,1,101,158.6a20.14,20.14,0,0,1-2.68,15.56,19.57,19.57,0,0,1-12.79,9.16,19.24,19.24,0,0,1-15.38-2.84,20.34,20.34,0,0,1-9-12.95A20,20,0,0,1,63.74,152.1Z"/><path class="cls-1" d="M86.77,129.42l-26.1,5.86q-5.64-17-1.15-30.59,1.53-5.35,7.61-13.93A88.38,88.38,0,0,0,76.7,73.88a27.74,27.74,0,0,0,1.5-17.24Q76.49,49,70.79,45.51T56.61,43.89Q40.08,47.61,30.18,67.64l-22-32.06Q24.72,13.82,54.28,8.09,76.66,4,92.58,12.28t20.67,28.49Q119.94,70.58,102.14,91q-11,13-13.33,16.93A24.84,24.84,0,0,0,86.77,129.42ZM63.62,152a19.38,19.38,0,0,1,12.71-9,20.56,20.56,0,0,1,24.51,15.52A20.14,20.14,0,0,1,98.16,174a19.57,19.57,0,0,1-12.79,9.16A19.24,19.24,0,0,1,70,180.36a20.34,20.34,0,0,1-9-13A20,20,0,0,1,63.62,152Z"/><path class="cls-1" d="M86.65,129.3l-26.1,5.86q-5.64-17-1.15-30.59Q60.93,99.22,67,90.64a88.38,88.38,0,0,0,9.57-16.88,27.77,27.77,0,0,0,1.5-17.25q-1.71-7.6-7.41-11.13T56.49,43.77Q40,47.49,30.06,67.52L8,35.46Q24.6,13.7,54.16,8q22.38-4.11,38.3,4.19t20.67,28.49Q119.82,70.46,102,90.89q-11,13-13.33,16.93A24.84,24.84,0,0,0,86.65,129.3ZM63.5,151.86a19.38,19.38,0,0,1,12.71-9,20.56,20.56,0,0,1,24.51,15.52A20.14,20.14,0,0,1,98,173.92a19.57,19.57,0,0,1-12.79,9.16,19.24,19.24,0,0,1-15.38-2.84,20.34,20.34,0,0,1-9-13A20,20,0,0,1,63.5,151.86Z"/><path class="cls-1" d="M86.53,129.18,60.43,135q-5.64-17-1.15-30.59,1.53-5.36,7.61-13.93a88.38,88.38,0,0,0,9.57-16.88A27.77,27.77,0,0,0,78,56.39q-1.71-7.61-7.41-11.13T56.37,43.65Q39.84,47.37,29.94,67.4l-22-32.06Q24.48,13.57,54,7.85,76.42,3.74,92.34,12T113,40.53q6.69,29.8-11.11,50.24-11,13-13.33,16.93A24.84,24.84,0,0,0,86.53,129.18ZM63.38,151.74a19.34,19.34,0,0,1,12.71-9,20.56,20.56,0,0,1,24.51,15.52,20.14,20.14,0,0,1-2.68,15.56A19.57,19.57,0,0,1,85.13,183a19.24,19.24,0,0,1-15.38-2.84,20.34,20.34,0,0,1-9-13A20,20,0,0,1,63.38,151.74Z"/><path class="cls-1" d="M86.41,129.06l-26.1,5.86q-5.64-17-1.15-30.59Q60.69,99,66.77,90.4a88.38,88.38,0,0,0,9.57-16.88,27.77,27.77,0,0,0,1.5-17.25q-1.71-7.6-7.41-11.13T56.25,43.53Q39.72,47.25,29.82,67.28l-22-32.06Q24.36,13.46,53.92,7.73q22.38-4.11,38.3,4.19t20.67,28.49q6.69,29.81-11.11,50.24-11,13-13.33,16.93A24.84,24.84,0,0,0,86.41,129.06ZM63.26,151.62a19.34,19.34,0,0,1,12.71-9,20.56,20.56,0,0,1,24.51,15.52,20.14,20.14,0,0,1-2.68,15.56A19.57,19.57,0,0,1,85,182.84,19.24,19.24,0,0,1,69.63,180a20.34,20.34,0,0,1-9-12.95A20,20,0,0,1,63.26,151.62Z"/><path class="cls-1" d="M86.29,128.94l-26.1,5.86q-5.64-17-1.15-30.59,1.53-5.35,7.61-13.93A88.38,88.38,0,0,0,76.22,73.4a27.77,27.77,0,0,0,1.5-17.25Q76,48.55,70.31,45T56.13,43.41Q39.6,47.13,29.7,67.16L7.65,35.1Q24.24,13.34,53.8,7.61,76.18,3.5,92.1,11.8t20.67,28.49q6.69,29.81-11.11,50.24-11,13-13.33,16.93A24.84,24.84,0,0,0,86.29,128.94ZM63.14,151.5a19.34,19.34,0,0,1,12.71-9A20.56,20.56,0,0,1,100.36,158a20.14,20.14,0,0,1-2.68,15.56,19.57,19.57,0,0,1-12.79,9.16,19.24,19.24,0,0,1-15.38-2.84,20.34,20.34,0,0,1-9-12.95A20,20,0,0,1,63.14,151.5Z"/><path class="cls-1" d="M86.17,128.82l-26.1,5.86q-5.64-17-1.15-30.59,1.53-5.36,7.61-13.93A88.38,88.38,0,0,0,76.1,73.28,27.77,27.77,0,0,0,77.6,56q-1.71-7.61-7.41-11.13T56,43.29Q39.48,47,29.58,67L7.53,35Q24.12,13.22,53.68,7.49,76.06,3.38,92,11.68t20.67,28.49q6.69,29.8-11.11,50.24-11,13-13.33,16.93A24.84,24.84,0,0,0,86.17,128.82ZM63,151.38a19.34,19.34,0,0,1,12.71-9,20.56,20.56,0,0,1,24.51,15.52,20.14,20.14,0,0,1-2.68,15.56,19.57,19.57,0,0,1-12.79,9.16,19.24,19.24,0,0,1-15.38-2.84,20.34,20.34,0,0,1-9-12.95A20,20,0,0,1,63,151.38Z"/><path class="cls-1" d="M86.05,128.7,60,134.56q-5.64-17-1.15-30.59Q60.33,98.62,66.41,90A88.38,88.38,0,0,0,76,73.16a27.77,27.77,0,0,0,1.5-17.25q-1.71-7.6-7.41-11.13T55.89,43.17q-16.53,3.7-26.43,23.75l-22-32.06Q24,13.1,53.56,7.37q22.38-4.11,38.3,4.19t20.67,28.49q6.69,29.81-11.11,50.24-11,13-13.33,16.93A24.84,24.84,0,0,0,86.05,128.7ZM62.9,151.26a19.34,19.34,0,0,1,12.71-9,20.56,20.56,0,0,1,24.51,15.52,20.14,20.14,0,0,1-2.68,15.56,19.57,19.57,0,0,1-12.79,9.16,19.24,19.24,0,0,1-15.38-2.84,20.34,20.34,0,0,1-9-12.95A20,20,0,0,1,62.9,151.26Z"/><path class="cls-2" d="M86.05,128.7,60,134.56q-5.64-17-1.15-30.59Q60.33,98.62,66.41,90A88.38,88.38,0,0,0,76,73.16a27.77,27.77,0,0,0,1.5-17.25q-1.71-7.6-7.41-11.13T55.89,43.17q-16.53,3.7-26.43,23.75l-22-32.06Q24,13.1,53.56,7.37q22.38-4.11,38.3,4.19t20.67,28.49q6.69,29.81-11.11,50.24-11,13-13.33,16.93A24.84,24.84,0,0,0,86.05,128.7ZM62.9,151.26a19.34,19.34,0,0,1,12.71-9,20.56,20.56,0,0,1,24.51,15.52,20.14,20.14,0,0,1-2.68,15.56,19.57,19.57,0,0,1-12.79,9.16,19.24,19.24,0,0,1-15.38-2.84,20.34,20.34,0,0,1-9-12.95A20,20,0,0,1,62.9,151.26Z"/><path class="cls-3" d="M86.05,128.7,60,134.56q-5.64-17-1.15-30.59Q60.33,98.62,66.41,90A88.38,88.38,0,0,0,76,73.16a27.77,27.77,0,0,0,1.5-17.25q-1.71-7.6-7.41-11.13T55.89,43.17q-16.53,3.7-26.43,23.75l-22-32.06Q24,13.1,53.56,7.37q22.38-4.11,38.3,4.19t20.67,28.49q6.69,29.81-11.11,50.24-11,13-13.33,16.93A24.84,24.84,0,0,0,86.05,128.7ZM62.9,151.26a19.34,19.34,0,0,1,12.71-9,20.56,20.56,0,0,1,24.51,15.52,20.14,20.14,0,0,1-2.68,15.56,19.57,19.57,0,0,1-12.79,9.16,19.24,19.24,0,0,1-15.38-2.84,20.34,20.34,0,0,1-9-12.95A20,20,0,0,1,62.9,151.26Z"/></g></g></g></svg>