<svg xmlns="http://www.w3.org/2000/svg" viewBox="0 0 307.88 444.79"><defs><style>.cls-1{fill:#fff;opacity:0.83;}.cls-2{fill:#2b2928;}</style></defs><g id="Layer_2" data-name="Layer 2"><g id="Layer_1-2" data-name="Layer 1"><g id="interroghost"><path class="cls-1" d="M277.36,390V228.35c0-24.23-.31-48.52-.15-72.74a39.08,39.08,0,0,0,12.12-3.44c4.19-1.8,8.44-3.94,11.23-7.55,4.13-5.36,4.17-13,2-19.38a33.37,33.37,0,0,0-8.75-13.64c-6.37-6-14.07-7.22-21.38-11.25-4.77-2.64-5.61-8-7.74-12.67a132,132,0,0,0-23.83-35A133.78,133.78,0,0,0,9.81,144.54V390a35.83,35.83,0,1,0,71.66,0v-5a36.93,36.93,0,0,1,17.18-4.21,37.51,37.51,0,0,1,9.11,1.12v21.74a35.83,35.83,0,1,0,71.65,0V383.06a37.32,37.32,0,0,1,26.29.33V390a35.83,35.83,0,1,0,71.66,0Z"/><path class="cls-2" d="M306.21,123.5a35.58,35.58,0,0,0-24.95-21.45C253.47,8.83,137.12-33,55.54,30.19,22.58,55.4,1.66,95.37,0,136.85c0,80.67,1.46,166.8,2.75,247.39.08,2,0,6.59.26,8.59a41.38,41.38,0,0,0,9.54,23.87c18.14,21.89,53.58,19.49,67.88-5.24A40.53,40.53,0,0,0,86,393.77c0-.9,0-1.81,0-2.71a31.42,31.42,0,0,1,6.26-.63A31,31,0,0,1,102,392c-.06,3.17-.11,6.13-.16,8.28-.06,1.58,0,4.78.08,6.37,1.22,21.42,20.41,38.2,41.58,38.13,19.78.22,38.28-15,41.31-34.64l.46-3.4c0-1.13.2-3.9.14-5q-.1-5.65-.23-11.31h.52a31,31,0,0,1,15.62,4.21,40.1,40.1,0,0,0,5.42,16.84c16.64,28.41,58.72,26.4,73.25-2.94a42.79,42.79,0,0,0,4.37-18.81c.12-3.34.17-13.07.31-16.46,1.21-70.32,2.07-147.35,2.6-217.88,6.58-2.92,13.58-6.8,17.73-13C308.72,136.76,308.52,129.41,306.21,123.5Zm-7.16,12a1.09,1.09,0,0,1-.08.15,9.33,9.33,0,0,1-.52,1,14.17,14.17,0,0,1-5,4.83,36.71,36.71,0,0,1-6.11,3.29h0a57.06,57.06,0,0,1-10.85,4l-.23.06v.11a85.85,85.85,0,0,1-26.42,4.56c-4.22.11-8.45,0-12.65-.3a153.87,153.87,0,0,1-24-3.87c-2-.47-3.92-1-5.88-1.52a232.59,232.59,0,0,1-24.6-8.33c-8.27-3.29-16.41-6.94-24.42-10.75L154.72,127l-7.87-3.8c-2.6-1.23-5.29-2.77-8.52-3.05-6.31-.3-11.08,4.88-15.57,8.57a79.48,79.48,0,0,0-20,28.76l1.11.45c7-10.42,15.1-19,24.91-25.53,1.6-1,3.48-2.3,5.1-3.13,1.39-.67,2.26-1.17,3.36-1.06a93.26,93.26,0,0,1,8.75,4.88c-9.17,6-15.38,17.35-15.38,30.35,0,19.23,13.55,34.87,30.21,34.87S191,182.65,191,163.42a39.55,39.55,0,0,0-1-8.85q7,2.61,14.28,4.7a38.05,38.05,0,0,0-.24,4.15c0,14.11,7.3,26.27,17.76,31.76a26.71,26.71,0,0,0,12.45,3.11c16.65,0,30.2-15.64,30.2-34.87,0-.09,0-.17,0-.26h0a89.72,89.72,0,0,0,11.82-3.27c.39,70.79,0,157.12.25,224.35a92.91,92.91,0,0,1-.32,10.85,33.74,33.74,0,0,1-9,19,35.17,35.17,0,0,1-40.78,7.47A34.82,34.82,0,0,1,215.92,414a34.24,34.24,0,0,1-8.09-14.33c-.1-.37-.22-.74-.32-1.12a40,40,0,0,1-1.1-10.71v-4.13c0-30.67-.09-99.78-.11-127.53h-1.2l-1.54,43.89c-.77,23.73-1.61,56.11-2.25,81.26a43,43,0,0,0-15.63-2.94l-.78,0c-.84-35.67-2.26-71.39-5.13-106.95h-.72l-.18,93.67c0,3.13,0,8.28,0,13.8,0,4.11,0,8.41,0,12.24s0,6.92,0,9.09c.52,11.56-4.57,23.19-13.93,30.12-22.66,17.24-56.27,1.63-56.49-27.2,0-2.36,0-5.15,0-8.26,0-4,0-8.48,0-13.4-.08-34.31-.17-88-.21-110.06h-.73c-2.87,35.08-4.12,70.26-5.11,105.38,0,.81,0,1.73-.06,2.73a43,43,0,0,0-10-1.19,43.49,43.49,0,0,0-6.39.48c-.22-11.64-.68-23.27-.94-34.91-.6-21.88-2-65.9-2.81-87.78h-1.2L80.79,344c-.23,4.19.15,21.95.07,35.95,0,5-.13,9.52-.32,12.77a25.59,25.59,0,0,1-.55,4.57A35.34,35.34,0,0,1,61,421.5l-.21.1a33.45,33.45,0,0,1-11.68,3.33c-18.36,1.94-36-11.31-38.2-29.84-.51-3-.22-7.86-.31-10.85.26-74.45-.24-172.6.4-246.81a138.85,138.85,0,0,1,4.23-26.83C45.34.24,190.1-23.65,254.08,71.1a130.21,130.21,0,0,1,15.08,30.57c0,.13.09.26.13.39a41.93,41.93,0,0,1,13.21,4.58l.06,0s0,0,0-.06a32.54,32.54,0,0,1,13,11.31,28,28,0,0,1,4.08,9.91A12.73,12.73,0,0,1,299.05,135.47Zm-40.56,28.72h0c-.34,15-10.36,27.25-22.89,28,8.84-4.9,15-15.21,15.54-27.27C253.59,164.8,256,164.54,258.49,164.19ZM174.28,148q4.13,1.92,8.28,3.66l.4.16A33.72,33.72,0,0,1,181.73,178c-.38.78-.79,1.53-1.23,2.26-.22.36-.45.72-.68,1.07-.47.7-1,1.38-1.48,2s-1.06,1.26-1.62,1.85a23.12,23.12,0,0,1-10,6.24,20.16,20.16,0,0,1-4.65.83c9.23-5.09,15.63-16.07,15.63-28.82h0A36,36,0,0,0,174.28,148Zm-22.19-11.44h0q-.76.36-1.5.78Q151.33,136.88,152.09,136.52Z"/></g></g></g></svg>