<svg xmlns="http://www.w3.org/2000/svg" viewBox="0 0 291.72 464.61"><defs><style>.cls-1{fill:#fff;opacity:0.83;}.cls-2{fill:#2b2928;}</style></defs><g id="Layer_2" data-name="Layer 2"><g id="Layer_1-2" data-name="Layer 1"><g id="Wallghost"><path class="cls-1" d="M287.6,170.24a27.25,27.25,0,0,0-13.42-20.72c-.85-64.73-45.48-123.21-110.33-135C94.1,1.71,25.51,57.7,17.65,140.34a2066.18,2066.18,0,0,0-8,272.47c.8,22.07,17.24,39,36.22,37.91s33.36-19.23,32.59-40.43c-.07-1.8-.13-3.59-.19-5.38a32.42,32.42,0,0,1,25.14-4.13q.36,11.54.88,23.06c.92,21.07,17.43,37.11,36.4,35.84S174,441,173.08,420.82q-.47-10.57-.82-21.13A33.58,33.58,0,0,1,184.4,397a34.35,34.35,0,0,1,13.12,2.18c.08,2.24.15,4.48.24,6.72.73,20.07,17.07,35.42,36.05,34.28s33.45-17.6,32.76-36.8c-.05-1-2.48-60.84-.35-120.23.75-31.41,2.76-62.68,4.5-85.19.59-.27,1.19-.54,1.77-.84C282.22,192.2,288.56,181.11,287.6,170.24Z"/><path class="cls-2" d="M287.43,156.12a46.63,46.63,0,0,0-3.89-5.9c.3-54-26.39-99.64-65.9-126.56C178-3.06,125.37-10.85,76.67,19.82c-35.6,22-61.79,63.69-67.93,109.68C-.31,219-2.09,315.32,2.29,405.17c.15,2.28.29,7.36.59,9.58a49.67,49.67,0,0,0,4.79,17.31C18,453.94,42.72,462,61.36,450.83c13.47-7.89,22-24.49,21.16-41.44a2.65,2.65,0,0,0,0-.27,25.85,25.85,0,0,1,5.87-.86,26.8,26.8,0,0,1,9.5,1.44c.07,3.58.15,6.95.21,9.36,0,1.69.21,5.09.37,6.78,2.21,22.83,21.86,39.43,42.14,37.93,19-1.09,35.63-17.89,37.6-38l.28-3.49c-.05-1.15,0-4-.1-5.11-.24-4-.46-7.94-.68-11.91l.46,0a28.62,28.62,0,0,1,15.17,3.83,41.2,41.2,0,0,0,6,17c17.52,28,57.69,22.83,70.16-6.24a42.84,42.84,0,0,0,3.45-18.44c0-3.25-.27-12.68-.22-16-.75-61.12,1.71-127.31,7.05-189.23a44.93,44.93,0,0,0,11.33-19.38C292.83,170,290.83,162.07,287.43,156.12Zm-8.52,34a19.36,19.36,0,0,1-9.56,6.31q-.24,3.24-.46,6.51l-.15.15.13.12c-4.36,63.29-6.17,135.41-3.64,193.14a98.42,98.42,0,0,1,.08,10.58,33.87,33.87,0,0,1-7.85,19,33.27,33.27,0,0,1-49.2,2.34A34.44,34.44,0,0,1,199.77,414c-.1-.31-.21-.6-.3-.92A41.38,41.38,0,0,1,198,402.27c-.07-1.2-.13-2.5-.19-3.87-1.34-30.84-1.38-101,.07-129.08l-1.15,0c-.16,0-2.68,44.29-2.53,44.3-1.1,24.09-1.56,57.07-1.34,82.61a39.76,39.76,0,0,0-15.07-2.49c-.24,0-.49,0-.74,0-1.92-36.52-3.36-73.12-5.13-109.69l-.7,0Q169.85,332,170.87,380c.06,3.28.2,8.72.37,14.51.12,4,.25,8.07.38,11.78.13,3.93.26,7.41.37,9.71,1,11.81-3.26,23.95-11.82,31.63-20.59,19.19-54,5.11-55.66-25.68-.18-2.64-.35-5.77-.5-9.28-.18-3.92-.34-8.33-.49-13.11-1.14-36.37-1.48-93.82-.43-117.33l-.69,0c-3.77,37.13-4.93,74.57-4.78,112,0,1,0,2.24,0,3.55a38.09,38.09,0,0,0-9.63-1,37.24,37.24,0,0,0-6.17.7c-1.39-27-2.54-60.07-2.91-85.19q-.47-23.55-.36-47.13l-1.16,0c-1.52,28.45-1.66,99.39-.43,133.67.1,2.88.21,5.51.33,7.83a41.86,41.86,0,0,1,.13,4.47c-.29,13.75-7,26.23-17.44,32.75h0v.06H59.9a30.94,30.94,0,0,1-11.08,4.24C31.33,451.25,13.49,437.55,10.59,417c-.62-3.28-.54-8.73-.74-12.05-3-82.75.08-191.86,9.38-273.73A160.88,160.88,0,0,1,26.43,102C71.21-18,213-11.25,259.26,89.47a141.32,141.32,0,0,1,13.2,50,64,64,0,0,0-17.71-9.92c-6.78-2.65-13.6-5.74-21.24-6.76-12.82-1.74-25.77,1.19-38-1.91-4.85-1.14-9.75-3.14-15-4.48a67.53,67.53,0,0,0-18.84-2.22c-25,.93-68.5,8.59-69.57,40.16l1.39.33c2.42-10.44,11.09-17.88,20.83-21.52,14.71-5.61,31.19-6.43,46.84-6.28a60.42,60.42,0,0,1,15.44,2.53c5,1.53,10,3.63,15.21,5.1A64,64,0,0,0,208,136.66c10.59.3,21.23-1.81,31.47,1.49,5,1.56,10.13,3.3,15.1,5a67.69,67.69,0,0,1,15.9,9.18,28.07,28.07,0,0,1,13,19.14A23.85,23.85,0,0,1,278.91,190.13Z"/><path class="cls-2" d="M29.61,464.6v-.06h0l-.12.08Z"/><path class="cls-2" d="M228.42,153.63A34.14,34.14,0,0,0,203,161.37a35.08,35.08,0,0,0-4.19,49.73,34.22,34.22,0,0,0,23.76,12c.81.06,1.62.09,2.42.09a35,35,0,0,0,34.74-31.87h0A35.16,35.16,0,0,0,228.42,153.63Zm25,37.15a28.61,28.61,0,0,1-28.47,26.05,31.9,31.9,0,0,0,4.76-56.62A28.78,28.78,0,0,1,253.39,190.78Z"/><path class="cls-2" d="M143.61,145.09a33.53,33.53,0,0,0-25,7.71,37.11,37.11,0,0,0-4.41,52.27A33.7,33.7,0,0,0,137.55,217c.78.06,1.55.08,2.33.08,17.91,0,33.33-14.37,34.91-33.07h0C176.43,164.48,162.44,147,143.61,145.09Zm24.86,38.35c-1.31,15.5-14.07,27.39-28.84,27.25a33.71,33.71,0,0,0,5-59.07C159.18,154,169.77,167.94,168.47,183.44Z"/></g></g></g></svg>